<?xml version="1.0" encoding="UTF-8"?>
<svg version="1.1" xmlns="http://www.w3.org/2000/svg" width="256" height="258">
<path d="M0 0 C0.64517578 0.16097168 1.29035156 0.32194336 1.95507812 0.48779297 C23.94063091 6.16975932 42.6709364 17.36638204 59 33 C59.74636719 33.68320312 60.49273437 34.36640625 61.26171875 35.0703125 C67.88236958 41.33277804 72.97963336 48.44348262 78 56 C78.6290625 56.93328125 79.258125 57.8665625 79.90625 58.828125 C88.18239545 71.99472003 93.59106389 87.67040659 96 103 C96.18046875 103.99902344 96.3609375 104.99804688 96.546875 106.02734375 C100.51099606 140.78174995 92.56359736 174.89202969 70.72900391 202.48095703 C69.49852434 203.99755043 68.24948883 205.49902926 67 207 C66.25878906 207.89460937 65.51757812 208.78921875 64.75390625 209.7109375 C44.7849412 232.84788453 15.17513986 247.35747755 -15 251 C-52.04536403 253.37598045 -84.2531067 244.65548168 -113 221 C-113.84062988 220.33774414 -113.84062988 220.33774414 -114.69824219 219.66210938 C-116.16923623 218.48634702 -117.5892901 217.24745267 -119 216 C-119 215.34 -119 214.68 -119 214 C-119.99 213.67 -120.98 213.34 -122 213 C-143.87996181 189.97771086 -158.59433884 156.97214866 -158.11450195 124.99243164 C-156.71637401 87.69013962 -142.56369877 55.02802034 -115.5859375 29.25 C-85.19849919 1.17482763 -40.05799251 -10.01449813 0 0 Z M26 60 C26 60.33 26 60.66 26 61 C27.98 61 29.96 61 32 61 C32 60.67 32 60.34 32 60 C30.02 60 28.04 60 26 60 Z M-31 70 C-27 71 -27 71 -27 71 Z M-20 73 C-18.02 73.99 -18.02 73.99 -16 75 C-16.33 74.34 -16.66 73.68 -17 73 C-17.99 73 -18.98 73 -20 73 Z M-38 81 C-38.08685603 82.56172745 -38.10702219 84.12729344 -38.09765625 85.69140625 C-38.09443359 86.63564453 -38.09121094 87.57988281 -38.08789062 88.55273438 C-38.07951172 89.54595703 -38.07113281 90.53917969 -38.0625 91.5625 C-38.05798828 92.55958984 -38.05347656 93.55667969 -38.04882812 94.58398438 C-38.03700023 97.05601487 -38.01906415 99.52801472 -38 102 C-33.05 102 -28.1 102 -23 102 C-22.67 100.68 -22.34 99.36 -22 98 C-23.03406673 96.74050951 -23.03406673 96.74050951 -25.28515625 96.90234375 C-26.20167969 96.91394531 -27.11820313 96.92554687 -28.0625 96.9375 C-28.98160156 96.94652344 -29.90070313 96.95554687 -30.84765625 96.96484375 C-31.55792969 96.97644531 -32.26820312 96.98804687 -33 97 C-33.33 95.68 -33.66 94.36 -34 93 C-31.36 93 -28.72 93 -26 93 C-26 91.68 -26 90.36 -26 89 C-28.64 89 -31.28 89 -34 89 C-34 87.68 -34 86.36 -34 85 C-30.37 85 -26.74 85 -23 85 C-22.67 83.68 -22.34 82.36 -22 81 C-23.13312756 79.64139107 -23.13312756 79.64139107 -26.125 79.8671875 C-27.40375 79.86976562 -28.6825 79.87234375 -30 79.875 C-31.27875 79.87242188 -32.5575 79.86984375 -33.875 79.8671875 C-36.86687244 79.64139107 -36.86687244 79.64139107 -38 81 Z M-9 108 C-5 109 -5 109 -5 109 Z M-43 109 C-42.67 109.66 -42.34 110.32 -42 111 C-41.34 110.67 -40.68 110.34 -40 110 C-40.99 109.67 -41.98 109.34 -43 109 Z M-19 109 C-19.99 109.495 -19.99 109.495 -21 110 C-21 110.66 -21 111.32 -21 112 C-19.68 111.34 -18.36 110.68 -17 110 C-17.66 109.67 -18.32 109.34 -19 109 Z M-37 110 C-36 112 -36 112 -36 112 Z M1 110 C2 112 2 112 2 112 Z M7 114 C8 116 8 116 8 116 Z M-63 120 C-63 120.99 -63 121.98 -63 123 C-60.69 123.33 -58.38 123.66 -56 124 C-55.67 129.61 -55.34 135.22 -55 141 C-53.68 141 -52.36 141 -51 141 C-50.67 135.39 -50.34 129.78 -50 124 C-46.535 123.505 -46.535 123.505 -43 123 C-43 122.01 -43 121.02 -43 120 C-49.6 120 -56.2 120 -63 120 Z M-16 120 C-16 126.93 -16 133.86 -16 141 C-14.68 141 -13.36 141 -12 141 C-11.67 138.36 -11.34 135.72 -11 133 C-8.36 132.67 -5.72 132.34 -3 132 C-3 134.97 -3 137.94 -3 141 C-1.68 141 -0.36 141 1 141 C1 134.07 1 127.14 1 120 C-0.32 120.33 -1.64 120.66 -3 121 C-3 123.64 -3 126.28 -3 129 C-5.97 129 -8.94 129 -12 129 C-12 126.36 -12 123.72 -12 121 C-13.32 120.67 -14.64 120.34 -16 120 Z M-32 126 C-32 128.31 -32 130.62 -32 133 C-31.01 132.34 -30.02 131.68 -29 131 C-29 129.68 -29 128.36 -29 127 C-29.99 126.67 -30.98 126.34 -32 126 Z M-59 150 C-59.33 150.66 -59.66 151.32 -60 152 C-58.68 151.67 -57.36 151.34 -56 151 C-56.99 150.67 -57.98 150.34 -59 150 Z M-48 150 C-48.66 150.66 -49.32 151.32 -50 152 C-48.35 152 -46.7 152 -45 152 C-45 151.34 -45 150.68 -45 150 C-45.99 150 -46.98 150 -48 150 Z M-15 150 C-15 150.66 -15 151.32 -15 152 C-13.35 152 -11.7 152 -10 152 C-10.66 151.34 -11.32 150.68 -12 150 C-12.99 150 -13.98 150 -15 150 Z M-6 152 C-4.02 152 -2.04 152 0 152 C0 151.34 0 150.68 0 150 C-3.18490007 149.7226499 -3.18490007 149.7226499 -6 152 Z M7 152 C7 152.33 7 152.66 7 153 C8.98 153 10.96 153 13 153 C13 152.67 13 152.34 13 152 C11.02 152 9.04 152 7 152 Z M-69 160 C-69 163.3 -69 166.6 -69 170 C-66.02211118 170.90991047 -64.56502006 171.25960381 -61.6875 169.9375 C-59.72192488 168.03511773 -59.72192488 168.03511773 -59.5625 164.9375 C-59.706875 163.968125 -59.85125 162.99875 -60 162 C-63.4352048 159.70986347 -64.985331 159.82157027 -69 160 Z M-57 160 C-57 163.63 -57 167.26 -57 171 C-54.36 171 -51.72 171 -49 171 C-49 170.34 -49 169.68 -49 169 C-51.97 168.505 -51.97 168.505 -55 168 C-53.68 167.34 -52.36 166.68 -51 166 C-51.33 165.34 -51.66 164.68 -52 164 C-52.99 164 -53.98 164 -55 164 C-55.33 163.34 -55.66 162.68 -56 162 C-54.02 162 -52.04 162 -50 162 C-49.67 161.34 -49.34 160.68 -49 160 C-51.64 160 -54.28 160 -57 160 Z M-47 160 C-47.02688151 161.64574566 -47.04634123 163.29161413 -47.0625 164.9375 C-47.07410156 165.85402344 -47.08570312 166.77054688 -47.09765625 167.71484375 C-47.25949049 169.96593327 -47.25949049 169.96593327 -46 171 C-44.00041636 171.04080783 -41.99954746 171.04254356 -40 171 C-40 170.34 -40 169.68 -40 169 C-41.65 169 -43.3 169 -45 169 C-45 166.03 -45 163.06 -45 160 C-45.66 160 -46.32 160 -47 160 Z M-37 160 C-37 163.63 -37 167.26 -37 171 C-34.78629949 169.21342243 -34.78629949 169.21342243 -34.8046875 166.8359375 C-34.82789062 166.02382812 -34.85109375 165.21171875 -34.875 164.375 C-34.89304687 163.55773437 -34.91109375 162.74046875 -34.9296875 161.8984375 C-34.95289062 161.27195313 -34.97609375 160.64546875 -35 160 C-35.66 160 -36.32 160 -37 160 Z M-33 160 C-31.77472971 164.05281712 -30.30119506 167.44360764 -28 171 C-25.1673866 169.5836933 -24.98292167 167.85502707 -23.875 164.9375 C-23.34519531 163.55884766 -23.34519531 163.55884766 -22.8046875 162.15234375 C-22.40636719 161.08693359 -22.40636719 161.08693359 -22 160 C-22.66 160 -23.32 160 -24 160 C-25.32 162.31 -26.64 164.62 -28 167 C-28.99 164.69 -29.98 162.38 -31 160 C-31.66 160 -32.32 160 -33 160 Z M-20 160 C-20 163.63 -20 167.26 -20 171 C-17.36 171 -14.72 171 -12 171 C-12 170.34 -12 169.68 -12 169 C-13.98 169 -15.96 169 -18 169 C-18 168.01 -18 167.02 -18 166 C-16.68 166 -15.36 166 -14 166 C-14 165.34 -14 164.68 -14 164 C-14.99 164 -15.98 164 -17 164 C-17.33 163.34 -17.66 162.68 -18 162 C-16.02 162 -14.04 162 -12 162 C-12 161.34 -12 160.68 -12 160 C-14.64 160 -17.28 160 -20 160 Z M-10 160 C-10 163.3 -10 166.6 -10 170 C-9.01 170.495 -9.01 170.495 -8 171 C-7.67 170.01 -7.34 169.02 -7 168 C-4 169 -4 169 -2 171 C-2 167.7 -2 164.4 -2 161 C-4.70879335 159.64560332 -7.00933268 159.93498549 -10 160 Z M1 160 C1.88776002 163.69900008 2.94581864 167.34550461 4 171 C4.66 171 5.32 171 6 171 C6.28875 169.9275 6.5775 168.855 6.875 167.75 C7.72820109 164.90599636 8.5636503 162.56491017 10 160 C6.88214887 160.64644661 6.88214887 160.64644661 6 163 C4 163 4 163 2.375 161.5 C1.92125 161.005 1.4675 160.51 1 160 Z M-54 178 C-54 178.33 -54 178.66 -54 179 C-52.02 179 -50.04 179 -48 179 C-48 178.67 -48 178.34 -48 178 C-49.98 178 -51.96 178 -54 178 Z M-43 178 C-43 178.33 -43 178.66 -43 179 C-25.51 179 -8.02 179 10 179 C10 178.67 10 178.34 10 178 C-7.49 178 -24.98 178 -43 178 Z " fill="#3F66F1" transform="translate(158,5)"/>
<path d="M0 0 C3.9375 0.4375 3.9375 0.4375 5.9375 1.9375 C6.4325 2.68 6.4325 2.68 6.9375 3.4375 C6.9375 2.7775 6.9375 2.1175 6.9375 1.4375 C8.8125 1.625 8.8125 1.625 10.9375 2.4375 C12.125 4.875 12.125 4.875 12.9375 7.4375 C13.4325 8.4275 13.4325 8.4275 13.9375 9.4375 C12 9.0625 12 9.0625 9.9375 8.4375 C9.4425 7.4475 9.4425 7.4475 8.9375 6.4375 C8.2775 6.4375 7.6175 6.4375 6.9375 6.4375 C6.9375 7.0975 6.9375 7.7575 6.9375 8.4375 C5.9475 8.7675 4.9575 9.0975 3.9375 9.4375 C3.4425 7.9525 3.4425 7.9525 2.9375 6.4375 C1.6175 6.7675 0.2975 7.0975 -1.0625 7.4375 C-1.0625 8.7575 -1.0625 10.0775 -1.0625 11.4375 C2.2375 11.4375 5.5375 11.4375 8.9375 11.4375 C9.5975 13.7475 10.2575 16.0575 10.9375 18.4375 C13.94009517 18.76968192 13.94009517 18.76968192 15.625 16.9375 C16.058125 16.4425 16.49125 15.9475 16.9375 15.4375 C19.375 16.25 19.375 16.25 21.9375 17.4375 C22.4325 18.9225 22.4325 18.9225 22.9375 20.4375 C23.5975 20.4375 24.2575 20.4375 24.9375 20.4375 C25.14466286 24.16643152 24.6636971 26.17690548 22.9375 29.4375 C22.22091854 31.01711754 21.51263608 32.60052488 20.8125 34.1875 C20.45929688 34.98671875 20.10609375 35.7859375 19.7421875 36.609375 C19.47664063 37.21265625 19.21109375 37.8159375 18.9375 38.4375 C19.9275 39.0975 20.9175 39.7575 21.9375 40.4375 C21.9375 41.0975 21.9375 41.7575 21.9375 42.4375 C22.659375 42.23125 23.38125 42.025 24.125 41.8125 C27.42228212 41.37286238 28.91385265 42.19702929 31.9375 43.4375 C34.17990782 43.15010075 34.17990782 43.15010075 35.9375 42.4375 C35.9375 43.0975 35.9375 43.7575 35.9375 44.4375 C37.4225 44.9325 37.4225 44.9325 38.9375 45.4375 C37.9475 46.4275 37.9475 46.4275 36.9375 47.4375 C37.9275 48.7575 38.9175 50.0775 39.9375 51.4375 C40.9275 51.1075 41.9175 50.7775 42.9375 50.4375 C43.06125 51.015 43.185 51.5925 43.3125 52.1875 C43.82740983 54.44939281 43.82740983 54.44939281 45.0625 56.25 C46.34428749 59.45446872 45.47704953 62.0803029 44.9375 65.4375 C45.246875 66.5203125 45.246875 66.5203125 45.5625 67.625 C45.68625 68.223125 45.81 68.82125 45.9375 69.4375 C44.95998365 70.78740354 43.95550576 72.11786291 42.9375 73.4375 C42.20489841 75.75097872 41.526062 78.083252 40.9375 80.4375 C39.6175 80.7675 38.2975 81.0975 36.9375 81.4375 C36.9375 82.0975 36.9375 82.7575 36.9375 83.4375 C39.5775 83.4375 42.2175 83.4375 44.9375 83.4375 C44.6075 85.4175 44.2775 87.3975 43.9375 89.4375 C37.6563091 90.57953471 32.20108841 90.361636 25.9375 89.4375 C25.6075 89.1075 25.2775 88.7775 24.9375 88.4375 C22.92438551 88.04180892 20.90152792 87.69497809 18.875 87.375 C17.21791016 87.11009766 17.21791016 87.11009766 15.52734375 86.83984375 C14.67269531 86.70707031 13.81804687 86.57429688 12.9375 86.4375 C12.9375 85.4475 12.9375 84.4575 12.9375 83.4375 C11.9475 83.9325 11.9475 83.9325 10.9375 84.4375 C10.9375 85.4275 10.9375 86.4175 10.9375 87.4375 C9.6175 87.1075 8.2975 86.7775 6.9375 86.4375 C6.4425 87.9225 6.4425 87.9225 5.9375 89.4375 C-0.8125 90.5625 -0.8125 90.5625 -3.0625 89.4375 C-4.238125 89.4375 -5.41375 89.4375 -6.625 89.4375 C-7.759375 89.4375 -8.89375 89.4375 -10.0625 89.4375 C-10.5575 88.9425 -10.5575 88.9425 -11.0625 88.4375 C-13.11718694 88.14649284 -15.18261784 87.92987393 -17.25 87.75 C-18.37792969 87.64300781 -19.50585938 87.53601563 -20.66796875 87.42578125 C-24.22849926 87.43807307 -26.77100129 88.1338867 -30.0625 89.4375 C-30.7225 86.7975 -31.3825 84.1575 -32.0625 81.4375 C-31.0725 81.4375 -30.0825 81.4375 -29.0625 81.4375 C-28.5675 80.4475 -28.5675 80.4475 -28.0625 79.4375 C-27.4025 80.4275 -26.7425 81.4175 -26.0625 82.4375 C-23.85524927 82.80112818 -23.85524927 82.80112818 -21.4375 82.625 C-20.62023437 82.59792969 -19.80296875 82.57085937 -18.9609375 82.54296875 C-18.02121094 82.49076172 -18.02121094 82.49076172 -17.0625 82.4375 C-17.0625 81.4475 -17.0625 80.4575 -17.0625 79.4375 C-15.6703125 79.0353125 -15.6703125 79.0353125 -14.25 78.625 C-11.08985393 77.70955339 -11.08985393 77.70955339 -9.4375 75.75 C-8.98375 75.316875 -8.53 74.88375 -8.0625 74.4375 C-5.875 74.75 -5.875 74.75 -4.0625 75.4375 C-4.0625 74.4475 -4.0625 73.4575 -4.0625 72.4375 C-3.0725 71.4475 -3.0725 71.4475 -2.0625 70.4375 C-1.30473736 68.75051018 -0.60138218 67.03859367 0.0625 65.3125 C0.59230469 63.94738281 0.59230469 63.94738281 1.1328125 62.5546875 C1.39835937 61.85601562 1.66390625 61.15734375 1.9375 60.4375 C1.2775 60.4375 0.6175 60.4375 -0.0625 60.4375 C-0.7225 63.0775 -1.3825 65.7175 -2.0625 68.4375 C-3.0525 68.4375 -4.0425 68.4375 -5.0625 68.4375 C-4.876875 67.798125 -4.69125 67.15875 -4.5 66.5 C-4.355625 65.819375 -4.21125 65.13875 -4.0625 64.4375 C-4.5575 63.9425 -4.5575 63.9425 -5.0625 63.4375 C-5.3925 62.4475 -5.7225 61.4575 -6.0625 60.4375 C-5.4025 60.4375 -4.7425 60.4375 -4.0625 60.4375 C-3.4025 57.7975 -2.7425 55.1575 -2.0625 52.4375 C-3.2071875 52.251875 -3.2071875 52.251875 -4.375 52.0625 C-7.0625 51.4375 -7.0625 51.4375 -10.0625 49.4375 C-10.0625 48.4475 -10.0625 47.4575 -10.0625 46.4375 C-14.45503773 44.87477811 -14.45503773 44.87477811 -19.0625 44.4375 C-19.3925 43.7775 -19.7225 43.1175 -20.0625 42.4375 C-19.7325 41.7775 -19.4025 41.1175 -19.0625 40.4375 C-18.27875 40.458125 -17.495 40.47875 -16.6875 40.5 C-14.08135039 40.62434063 -14.08135039 40.62434063 -12.0625 39.4375 C-10.5775 39.9325 -10.5775 39.9325 -9.0625 40.4375 C-9.3925 41.4275 -9.7225 42.4175 -10.0625 43.4375 C-8.11646726 44.02820014 -8.11646726 44.02820014 -6.0625 44.4375 C-5.7325 44.1075 -5.4025 43.7775 -5.0625 43.4375 C-3.37641034 43.36544489 -1.68749341 43.35363932 0 43.375 C0.91910156 43.38402344 1.83820313 43.39304688 2.78515625 43.40234375 C3.49542969 43.41394531 4.20570313 43.42554688 4.9375 43.4375 C5.5975 41.7875 6.2575 40.1375 6.9375 38.4375 C6.16664063 38.38851562 5.39578125 38.33953125 4.6015625 38.2890625 C3.59867188 38.21429688 2.59578125 38.13953125 1.5625 38.0625 C0.06589844 37.95808594 0.06589844 37.95808594 -1.4609375 37.8515625 C-4.0625 37.4375 -4.0625 37.4375 -6.0625 35.4375 C-1.4425 35.1075 3.1775 34.7775 7.9375 34.4375 C7.9375 33.4475 7.9375 32.4575 7.9375 31.4375 C4.6375 31.4375 1.3375 31.4375 -2.0625 31.4375 C-2.5575 28.9625 -2.5575 28.9625 -3.0625 26.4375 C0.8975 25.9425 0.8975 25.9425 4.9375 25.4375 C4.9375 24.7775 4.9375 24.1175 4.9375 23.4375 C2.2975 23.1075 -0.3425 22.7775 -3.0625 22.4375 C-3.0625 21.1175 -3.0625 19.7975 -3.0625 18.4375 C0.5675 18.1075 4.1975 17.7775 7.9375 17.4375 C7.9375 16.4475 7.9375 15.4575 7.9375 14.4375 C3.3175 14.4375 -1.3025 14.4375 -6.0625 14.4375 C-6.3925 21.3675 -6.7225 28.2975 -7.0625 35.4375 C-7.3925 35.4375 -7.7225 35.4375 -8.0625 35.4375 C-8.5575 24.0525 -8.5575 24.0525 -9.0625 12.4375 C-10.7125 11.7775 -12.3625 11.1175 -14.0625 10.4375 C-14.145 11.22125 -14.2275 12.005 -14.3125 12.8125 C-15.0625 15.4375 -15.0625 15.4375 -17.125 16.75 C-17.764375 16.976875 -18.40375 17.20375 -19.0625 17.4375 C-18.64568127 12.5746148 -16.69265855 10.57263693 -13.0625 7.4375 C-11.40301852 6.42562105 -9.73669438 5.4248454 -8.0625 4.4375 C-7.464375 3.715625 -6.86625 2.99375 -6.25 2.25 C-3.81731836 0.2343495 -3.05373716 0.11145026 0 0 Z M-0.0625 3.4375 C3.9375 4.4375 3.9375 4.4375 3.9375 4.4375 Z M11.9375 42.4375 C10.9475 42.9325 10.9475 42.9325 9.9375 43.4375 C9.9375 44.0975 9.9375 44.7575 9.9375 45.4375 C11.2575 44.7775 12.5775 44.1175 13.9375 43.4375 C13.2775 43.1075 12.6175 42.7775 11.9375 42.4375 Z M14.9375 53.4375 C14.9375 60.3675 14.9375 67.2975 14.9375 74.4375 C16.2575 74.4375 17.5775 74.4375 18.9375 74.4375 C19.2675 71.7975 19.5975 69.1575 19.9375 66.4375 C22.5775 66.1075 25.2175 65.7775 27.9375 65.4375 C27.9375 68.4075 27.9375 71.3775 27.9375 74.4375 C29.2575 74.4375 30.5775 74.4375 31.9375 74.4375 C31.9375 67.5075 31.9375 60.5775 31.9375 53.4375 C30.6175 53.7675 29.2975 54.0975 27.9375 54.4375 C27.9375 57.0775 27.9375 59.7175 27.9375 62.4375 C24.9675 62.4375 21.9975 62.4375 18.9375 62.4375 C18.9375 59.7975 18.9375 57.1575 18.9375 54.4375 C17.6175 54.1075 16.2975 53.7775 14.9375 53.4375 Z M-28.0625 83.4375 C-28.3925 84.0975 -28.7225 84.7575 -29.0625 85.4375 C-27.7425 85.1075 -26.4225 84.7775 -25.0625 84.4375 C-26.0525 84.1075 -27.0425 83.7775 -28.0625 83.4375 Z M-17.0625 83.4375 C-17.7225 84.0975 -18.3825 84.7575 -19.0625 85.4375 C-17.4125 85.4375 -15.7625 85.4375 -14.0625 85.4375 C-14.0625 84.7775 -14.0625 84.1175 -14.0625 83.4375 C-15.0525 83.4375 -16.0425 83.4375 -17.0625 83.4375 Z M15.9375 83.4375 C15.9375 84.0975 15.9375 84.7575 15.9375 85.4375 C17.5875 85.4375 19.2375 85.4375 20.9375 85.4375 C20.2775 84.7775 19.6175 84.1175 18.9375 83.4375 C17.9475 83.4375 16.9575 83.4375 15.9375 83.4375 Z M24.9375 85.4375 C26.9175 85.4375 28.8975 85.4375 30.9375 85.4375 C30.9375 84.7775 30.9375 84.1175 30.9375 83.4375 C27.75259993 83.1601499 27.75259993 83.1601499 24.9375 85.4375 Z M37.9375 85.4375 C37.9375 85.7675 37.9375 86.0975 37.9375 86.4375 C39.9175 86.4375 41.8975 86.4375 43.9375 86.4375 C43.9375 86.1075 43.9375 85.7775 43.9375 85.4375 C41.9575 85.4375 39.9775 85.4375 37.9375 85.4375 Z M-39.0625 75.4375 C-38.0725 75.7675 -37.0825 76.0975 -36.0625 76.4375 C-36.0625 77.0975 -36.0625 77.7575 -36.0625 78.4375 C-35.0725 78.7675 -34.0825 79.0975 -33.0625 79.4375 C-32.375 81.5 -32.375 81.5 -32.0625 83.4375 C-33.7125 83.4375 -35.3625 83.4375 -37.0625 83.4375 C-37.0625 82.7775 -37.0625 82.1175 -37.0625 81.4375 C-37.7225 81.4375 -38.3825 81.4375 -39.0625 81.4375 C-39.0625 79.4575 -39.0625 77.4775 -39.0625 75.4375 Z " fill="#3A62E5" transform="translate(127.0625,71.5625)"/>
<path d="M0 0 C0.64517578 0.16097168 1.29035156 0.32194336 1.95507812 0.48779297 C23.94063091 6.16975932 42.6709364 17.36638204 59 33 C59.74636719 33.68320312 60.49273437 34.36640625 61.26171875 35.0703125 C67.88236958 41.33277804 72.97963336 48.44348262 78 56 C78.6290625 56.93328125 79.258125 57.8665625 79.90625 58.828125 C88.18239545 71.99472003 93.59106389 87.67040659 96 103 C96.27263672 104.49080078 96.27263672 104.49080078 96.55078125 106.01171875 C98.75257932 121.9065623 98.10715503 139.47593187 94 155 C93.67 155 93.34 155 93 155 C92.80221453 153.14690227 92.61730292 151.29242889 92.4375 149.4375 C92.33308594 148.40496094 92.22867188 147.37242187 92.12109375 146.30859375 C92 143 92 143 92.45703125 139.90234375 C97.1582154 106.11469652 87.7441981 75.53909936 68.03125 48.27734375 C63.5170152 42.44029014 58.44614708 37.33979286 53.125 32.25 C51 30 51 30 51 28 C50.42765625 27.896875 49.8553125 27.79375 49.265625 27.6875 C46.6000178 26.87862609 44.97225767 25.67834845 42.75 24 C31.36011902 15.87866466 19.47131393 9.69226999 6.07519531 5.63330078 C4.13009576 5.03970217 2.20091036 4.39464594 0.2734375 3.74609375 C-28.97158744 -4.80107749 -61.90970309 1.28900963 -88.53515625 14.79296875 C-117.38108732 31.05835182 -139.12979795 56.68757851 -148.75 88.5 C-148.94883789 89.15145996 -149.14767578 89.80291992 -149.35253906 90.47412109 C-152.58250748 101.79009107 -153.36335538 113.15507954 -153.3125 124.875 C-153.31026428 125.86196365 -153.31026428 125.86196365 -153.3079834 126.86886597 C-153.26828295 136.6246575 -152.77563781 145.60281945 -150 155 C-149.67515625 156.16402344 -149.3503125 157.32804688 -149.015625 158.52734375 C-147.35490427 164.20573116 -145.4206489 169.60855473 -143 175 C-142.690625 176.03125 -142.38125 177.0625 -142.0625 178.125 C-140.86708861 181.35964258 -139.20943878 183.37629145 -137 186 C-135.875 188.0625 -135.875 188.0625 -135 190 C-134.02158727 192.152508 -133.2772873 193.73476867 -131.5625 195.375 C-130 197 -130 197 -128.625 199.9375 C-127.19356141 203.13449734 -127.19356141 203.13449734 -124.375 205.0625 C-122 207 -122 207 -121.1875 209.75 C-121.125625 210.4925 -121.06375 211.235 -121 212 C-120.01 212.33 -119.02 212.66 -118 213 C-118 213.66 -118 214.32 -118 215 C-117.01 214.67 -116.02 214.34 -115 214 C-114.46375 214.928125 -113.9275 215.85625 -113.375 216.8125 C-110.70011584 220.4024761 -108.97822216 221.08524821 -105 223 C-101.6493104 224.99957666 -98.38007312 227.13101275 -95.09765625 229.24023438 C-88.35222871 233.52273606 -81.36795359 236.93001934 -74 240 C-74 240.66 -74 241.32 -74 242 C-73.46375 242.02578125 -72.9275 242.0515625 -72.375 242.078125 C-66.90779109 242.47377828 -61.94765816 243.5215146 -56.671875 245.015625 C-48.14599834 247.26262481 -40.02742928 247.63006362 -31.25 247.5 C-30.51187073 247.49446106 -29.77374146 247.48892212 -29.01324463 247.48321533 C-8.68610765 247.30501773 11.73784615 243.99072985 29.203125 232.8828125 C31 232 31 232 35 232 C35.33 231.01 35.66 230.02 36 229 C39.37867647 226.53447933 40.70558202 226 45 226 C45.185625 225.278125 45.37125 224.55625 45.5625 223.8125 C47.79452803 219.44548864 51.67836063 217.16081968 56 215 C56 214.34 56 213.68 56 213 C57.98 212.34 59.96 211.68 62 211 C62.1546875 209.8553125 62.1546875 209.8553125 62.3125 208.6875 C63.05067115 205.80192188 63.62140803 204.73820183 66 203 C66.99 203 67.98 203 69 203 C60.59458269 222.03195526 34.83543343 235.82384844 16.27734375 243.14794922 C-16.35353537 255.35654357 -52.22304862 254.23529951 -84 240 C-94.62274942 234.93450017 -103.93104066 228.46274038 -113 221 C-113.84062988 220.33774414 -113.84062988 220.33774414 -114.69824219 219.66210938 C-116.16923623 218.48634702 -117.5892901 217.24745267 -119 216 C-119 215.34 -119 214.68 -119 214 C-119.99 213.67 -120.98 213.34 -122 213 C-143.87996181 189.97771086 -158.59433884 156.97214866 -158.11450195 124.99243164 C-156.71637401 87.69013962 -142.56369877 55.02802034 -115.5859375 29.25 C-85.19849919 1.17482763 -40.05799251 -10.01449813 0 0 Z M-134 189 C-133.01 189.495 -133.01 189.495 -132 190 C-132.99 190.495 -132.99 190.495 -134 191 C-134 190.34 -134 189.68 -134 189 Z " fill="#3F62D3" transform="translate(158,5)"/>
<path d="M0 0 C1.50014467 0 3.00037621 -0.0229712 4.5 -0.0625 C8.11703014 -0.11684603 10.72984251 0.31217678 14 2 C14 4.64 14 7.28 14 10 C14.99 10 15.98 10 17 10 C17.04898438 9.36191406 17.09796875 8.72382813 17.1484375 8.06640625 C17.22320312 7.24011719 17.29796875 6.41382813 17.375 5.5625 C17.44460937 4.73878906 17.51421875 3.91507813 17.5859375 3.06640625 C17.72257812 2.38449219 17.85921875 1.70257813 18 1 C20.78863007 -0.39431504 22.92078868 -0.25660094 26 0 C26.66 0.99 27.32 1.98 28 3 C27.34 3.33 26.68 3.66 26 4 C26 3.34 26 2.68 26 2 C25.34 2 24.68 2 24 2 C26.475 6.95 26.475 6.95 29 12 C31.40785992 8.7895201 32.68197635 6.64991166 34 3 C32.08895362 4.91104638 31.17661659 7.59560958 30 10 C29.01 9.01 28.02 8.02 27 7 C27.33 6.34 27.66 5.68 28 5 C28.99 5 29.98 5 31 5 C31.33 3.35 31.66 1.7 32 0 C44.33333333 0 56.66666667 0 69 0 C68.67 2.31 68.34 4.62 68 7 C67.01 7.33 66.02 7.66 65 8 C64.67 9.65 64.34 11.3 64 13 C64.99 12.67 65.98 12.34 67 12 C67.99 12.33 68.98 12.66 70 13 C70 13.66 70 14.32 70 15 C70.99 15 71.98 15 73 15 C73.33 14.01 73.66 13.02 74 12 C74.96718349 15.07740201 75.15764237 16.5908987 73.98258972 19.64030457 C72 22 72 22 68.71601868 22.60127258 C67.34106459 22.61576691 65.96565345 22.60246818 64.59106445 22.56762695 C63.83960144 22.56835709 63.08813843 22.56908722 62.31390381 22.56983948 C59.82962899 22.56635547 57.34722849 22.52745953 54.86328125 22.48828125 C53.14122034 22.47895593 51.41914617 22.47183849 49.69706726 22.46684265 C45.16424951 22.44775051 40.6322327 22.39863119 36.09973145 22.34332275 C31.47480098 22.2921777 26.84974111 22.26933879 22.22460938 22.24414062 C13.14938765 22.19051414 4.07476042 22.10517493 -5 22 C-4.67 21.01 -4.34 20.02 -4 19 C-3.14728516 18.90912109 -3.14728516 18.90912109 -2.27734375 18.81640625 C1.45183565 18.41173737 5.16208509 17.97647152 8.875 17.4375 C12 17 12 17 15 17 C12.15412741 14.15412741 9.96429649 14.66247117 6 14.5 C-0.77777778 14.22222222 -0.77777778 14.22222222 -3 12 C-3.33 12.66 -3.66 13.32 -4 14 C-10.0546875 14.1953125 -10.0546875 14.1953125 -12 14 C-14 12 -14 12 -14.23046875 9.6875 C-14.21628906 8.800625 -14.20210938 7.91375 -14.1875 7 C-14.18105469 6.113125 -14.17460938 5.22625 -14.16796875 4.3125 C-14 2 -14 2 -13 0 C-8.19127873 -0.8815989 -4.76227223 -1.04537683 0 0 Z M-12 2 C-12 5.3 -12 8.6 -12 12 C-9.02211118 12.90991047 -7.56502006 13.25960381 -4.6875 11.9375 C-2.72192488 10.03511773 -2.72192488 10.03511773 -2.5625 6.9375 C-2.706875 5.968125 -2.85125 4.99875 -3 4 C-6.4352048 1.70986347 -7.985331 1.82157027 -12 2 Z M0 2 C0 5.63 0 9.26 0 13 C2.64 13 5.28 13 8 13 C8 12.34 8 11.68 8 11 C5.03 10.505 5.03 10.505 2 10 C3.32 9.34 4.64 8.68 6 8 C5.67 7.34 5.34 6.68 5 6 C4.01 6 3.02 6 2 6 C1.67 5.34 1.34 4.68 1 4 C2.98 4 4.96 4 7 4 C7.33 3.34 7.66 2.68 8 2 C5.36 2 2.72 2 0 2 Z M10 2 C9.97311849 3.64574566 9.95365877 5.29161413 9.9375 6.9375 C9.92589844 7.85402344 9.91429688 8.77054688 9.90234375 9.71484375 C9.74050951 11.96593327 9.74050951 11.96593327 11 13 C12.99958364 13.04080783 15.00045254 13.04254356 17 13 C17 12.34 17 11.68 17 11 C15.35 11 13.7 11 12 11 C12 8.03 12 5.06 12 2 C11.34 2 10.68 2 10 2 Z M20 2 C20 5.63 20 9.26 20 13 C22.21370051 11.21342243 22.21370051 11.21342243 22.1953125 8.8359375 C22.17210937 8.02382812 22.14890625 7.21171875 22.125 6.375 C22.10695312 5.55773437 22.08890625 4.74046875 22.0703125 3.8984375 C22.04710937 3.27195313 22.02390625 2.64546875 22 2 C21.34 2 20.68 2 20 2 Z M37 2 C37 5.63 37 9.26 37 13 C39.64 13 42.28 13 45 13 C45 12.34 45 11.68 45 11 C43.02 11 41.04 11 39 11 C39 10.01 39 9.02 39 8 C40.32 8 41.64 8 43 8 C43 7.34 43 6.68 43 6 C42.01 6 41.02 6 40 6 C39.67 5.34 39.34 4.68 39 4 C40.98 4 42.96 4 45 4 C45 3.34 45 2.68 45 2 C42.36 2 39.72 2 37 2 Z M47 2 C47 5.3 47 8.6 47 12 C47.99 12.495 47.99 12.495 49 13 C49.33 12.01 49.66 11.02 50 10 C53 11 53 11 55 13 C55 9.7 55 6.4 55 3 C52.29120665 1.64560332 49.99066732 1.93498549 47 2 Z M58 2 C58.88776002 5.69900008 59.94581864 9.34550461 61 13 C61.66 13 62.32 13 63 13 C63.28875 11.9275 63.5775 10.855 63.875 9.75 C64.72820109 6.90599636 65.5636503 4.56491017 67 2 C63.88214887 2.64644661 63.88214887 2.64644661 63 5 C61 5 61 5 59.375 3.5 C58.92125 3.005 58.4675 2.51 58 2 Z M3 20 C3 20.33 3 20.66 3 21 C4.98 21 6.96 21 9 21 C9 20.67 9 20.34 9 20 C7.02 20 5.04 20 3 20 Z M14 20 C14 20.33 14 20.66 14 21 C31.49 21 48.98 21 67 21 C67 20.67 67 20.34 67 20 C49.51 20 32.02 20 14 20 Z M66 10 C66.66 10 67.32 10 68 10 C67.67 10.66 67.34 11.32 67 12 C66.67 11.34 66.34 10.68 66 10 Z " fill="#3A61ED" transform="translate(101,163)"/>
<path d="M0 0 C1.50014467 0 3.00037621 -0.0229712 4.5 -0.0625 C8.11703014 -0.11684603 10.72984251 0.31217678 14 2 C14 4.64 14 7.28 14 10 C14.99 10 15.98 10 17 10 C17.04898438 9.36191406 17.09796875 8.72382813 17.1484375 8.06640625 C17.22320312 7.24011719 17.29796875 6.41382813 17.375 5.5625 C17.44460937 4.73878906 17.51421875 3.91507813 17.5859375 3.06640625 C17.72257812 2.38449219 17.85921875 1.70257813 18 1 C20.78863007 -0.39431504 22.92078868 -0.25660094 26 0 C26.66 0.99 27.32 1.98 28 3 C27.34 3.33 26.68 3.66 26 4 C26 3.34 26 2.68 26 2 C25.34 2 24.68 2 24 2 C26.475 7.445 26.475 7.445 29 13 C28.01 12.67 27.02 12.34 26 12 C26 11.34 26 10.68 26 10 C25.34 10.33 24.68 10.66 24 11 C23.67 11.99 23.34 12.98 23 14 C21.02 14 19.04 14 17 14 C16.67 14.99 16.34 15.98 16 17 C16.79277344 16.97679687 17.58554688 16.95359375 18.40234375 16.9296875 C30.27437422 16.74603178 42.0103065 17.77027394 53.82958984 18.81640625 C56.72971824 19.09310169 56.72971824 19.09310169 59.5625 17.875 C64.10599807 16.71847322 66.56347654 17.62314789 71 19 C70.505 20.485 70.505 20.485 70 22 C45.25 22 20.5 22 -5 22 C-4.67 21.01 -4.34 20.02 -4 19 C-3.14728516 18.90912109 -3.14728516 18.90912109 -2.27734375 18.81640625 C1.45183565 18.41173737 5.16208509 17.97647152 8.875 17.4375 C12 17 12 17 15 17 C12.15412741 14.15412741 9.96429649 14.66247117 6 14.5 C-0.77777778 14.22222222 -0.77777778 14.22222222 -3 12 C-3.33 12.66 -3.66 13.32 -4 14 C-10.0546875 14.1953125 -10.0546875 14.1953125 -12 14 C-14 12 -14 12 -14.23046875 9.6875 C-14.21628906 8.800625 -14.20210938 7.91375 -14.1875 7 C-14.18105469 6.113125 -14.17460938 5.22625 -14.16796875 4.3125 C-14 2 -14 2 -13 0 C-8.19127873 -0.8815989 -4.76227223 -1.04537683 0 0 Z M-12 2 C-12 5.3 -12 8.6 -12 12 C-9.02211118 12.90991047 -7.56502006 13.25960381 -4.6875 11.9375 C-2.72192488 10.03511773 -2.72192488 10.03511773 -2.5625 6.9375 C-2.706875 5.968125 -2.85125 4.99875 -3 4 C-6.4352048 1.70986347 -7.985331 1.82157027 -12 2 Z M0 2 C0 5.63 0 9.26 0 13 C2.64 13 5.28 13 8 13 C8 12.34 8 11.68 8 11 C5.03 10.505 5.03 10.505 2 10 C3.32 9.34 4.64 8.68 6 8 C5.67 7.34 5.34 6.68 5 6 C4.01 6 3.02 6 2 6 C1.67 5.34 1.34 4.68 1 4 C2.98 4 4.96 4 7 4 C7.33 3.34 7.66 2.68 8 2 C5.36 2 2.72 2 0 2 Z M10 2 C9.97311849 3.64574566 9.95365877 5.29161413 9.9375 6.9375 C9.92589844 7.85402344 9.91429688 8.77054688 9.90234375 9.71484375 C9.74050951 11.96593327 9.74050951 11.96593327 11 13 C12.99958364 13.04080783 15.00045254 13.04254356 17 13 C17 12.34 17 11.68 17 11 C15.35 11 13.7 11 12 11 C12 8.03 12 5.06 12 2 C11.34 2 10.68 2 10 2 Z M20 2 C20 5.63 20 9.26 20 13 C22.21370051 11.21342243 22.21370051 11.21342243 22.1953125 8.8359375 C22.17210937 8.02382812 22.14890625 7.21171875 22.125 6.375 C22.10695312 5.55773437 22.08890625 4.74046875 22.0703125 3.8984375 C22.04710937 3.27195313 22.02390625 2.64546875 22 2 C21.34 2 20.68 2 20 2 Z M3 20 C3 20.33 3 20.66 3 21 C4.98 21 6.96 21 9 21 C9 20.67 9 20.34 9 20 C7.02 20 5.04 20 3 20 Z " fill="#3A5FD2" transform="translate(101,163)"/>
<path d="M0 0 C0.474375 0.515625 0.94875 1.03125 1.4375 1.5625 C5.30997616 3.73486467 8.75229924 2.75333154 13 2 C13.33 3.32 13.66 4.64 14 6 C12.02 6.66 10.04 7.32 8 8 C8 10.97 8 13.94 8 17 C5.69 17 3.38 17 1 17 C1 14.03 1 11.06 1 8 C-0.98 8 -2.96 8 -5 8 C-5 15.26 -5 22.52 -5 30 C-3.35 30 -1.7 30 0 30 C-2 32 -2 32 -5.625 32.125 C-6.73875 32.08375 -7.8525 32.0425 -9 32 C-9 31.67 -9 31.34 -9 31 C-10.65 30.67 -12.3 30.34 -14 30 C-13.34 28.68 -12.68 27.36 -12 26 C-12.99 26.33 -13.98 26.66 -15 27 C-15.66 26.34 -16.32 25.68 -17 25 C-16.3819713 23.20591668 -15.75533919 21.41479522 -15.125 19.625 C-14.77695313 18.62726563 -14.42890625 17.62953125 -14.0703125 16.6015625 C-13 14 -13 14 -11 12 C-10.01 12 -9.02 12 -8 12 C-8 11.01 -8 10.02 -8 9 C-8.66 9 -9.32 9 -10 9 C-10 8.01 -10 7.02 -10 6 C-3.375 2 -3.375 2 0 2 C0 1.34 0 0.68 0 0 Z M-18 28 C-14.1736558 29.55888097 -11.85362504 32.07127956 -9 35 C-8.34 35.33 -7.68 35.66 -7 36 C-7 36.66 -7 37.32 -7 38 C-7.94875 38.28875 -8.8975 38.5775 -9.875 38.875 C-13.05211578 39.76825109 -13.05211578 39.76825109 -15 42 C-18.2578125 42.1953125 -18.2578125 42.1953125 -22.125 42.125 C-24.04699219 42.09792969 -24.04699219 42.09792969 -26.0078125 42.0703125 C-27.48894531 42.03550781 -27.48894531 42.03550781 -29 42 C-29 41.01 -29 40.02 -29 39 C-28.34 38.67 -27.68 38.34 -27 38 C-26.67 37.34 -26.34 36.68 -26 36 C-25.401875 35.7525 -24.80375 35.505 -24.1875 35.25 C-21.10345483 33.48768848 -19.81963769 30.98940478 -18 28 Z " fill="#3D65F1" transform="translate(146,116)"/>
<path d="M0 0 C1.98 0 3.96 0 6 0 C6 0.33 6 0.66 6 1 C9.34252724 1.07427838 11.8035914 1.06546953 15 0 C14.67 1.65 14.34 3.3 14 5 C17.58189295 6.69144945 19.24274238 7.05672871 23 6 C24.67654729 6.27942455 26.34608154 6.60828247 28 7 C28.66 7 29.32 7 30 7 C30.45375 6.21625 30.9075 5.4325 31.375 4.625 C33.07651113 1.8764051 34.04519084 1.12078968 37 0 C37 1.65 37 3.3 37 5 C35.35 5.66 33.7 6.32 32 7 C32 7.66 32 8.32 32 9 C34.64 9 37.28 9 40 9 C39.67 10.98 39.34 12.96 39 15 C32.7188091 16.14203471 27.26358841 15.924136 21 15 C20.67 14.67 20.34 14.34 20 14 C17.98688551 13.60430892 15.96402792 13.25747809 13.9375 12.9375 C12.28041016 12.67259766 12.28041016 12.67259766 10.58984375 12.40234375 C9.73519531 12.26957031 8.88054687 12.13679687 8 12 C8 11.01 8 10.02 8 9 C7.01 8.67 6.02 8.34 5 8 C5.66 8 6.32 8 7 8 C7 7.34 7 6.68 7 6 C6.21625 5.7525 5.4325 5.505 4.625 5.25 C1.67682892 3.84610901 1.0975223 2.99324263 0 0 Z M11 9 C11 9.66 11 10.32 11 11 C12.65 11 14.3 11 16 11 C15.34 10.34 14.68 9.68 14 9 C13.01 9 12.02 9 11 9 Z M20 11 C21.98 11 23.96 11 26 11 C26 10.34 26 9.68 26 9 C22.81509993 8.7226499 22.81509993 8.7226499 20 11 Z M33 11 C33 11.33 33 11.66 33 12 C34.98 12 36.96 12 39 12 C39 11.67 39 11.34 39 11 C37.02 11 35.04 11 33 11 Z " fill="#3660DE" transform="translate(132,146)"/>
<path d="M0 0 C12.33333333 0 24.66666667 0 37 0 C36.67 2.31 36.34 4.62 36 7 C34.68 7.33 33.36 7.66 32 8 C32.66 6.35 33.32 4.7 34 3 C33.01 3.99 32.02 4.98 31 6 C30.01 5.67 29.02 5.34 28 5 C27.505 4.01 27.505 4.01 27 3 C26.67 3.66 26.34 4.32 26 5 C25.34 5 24.68 5 24 5 C24.309375 6.175625 24.309375 6.175625 24.625 7.375 C24.74875 8.24125 24.8725 9.1075 25 10 C24.34 10.66 23.68 11.32 23 12 C21.89155081 8.67465243 22.15545644 6.37817425 23 3 C20.36 2.67 17.72 2.34 15 2 C15.33 5.3 15.66 8.6 16 12 C16.66 11.01 17.32 10.02 18 9 C19.32 9.66 20.64 10.32 22 11 C22 11.66 22 12.32 22 13 C18.7 13.33 15.4 13.66 12 14 C12.33 13.01 12.66 12.02 13 11 C11.02 11 9.04 11 7 11 C7 10.01 7 9.02 7 8 C8.32 8 9.64 8 11 8 C11 7.34 11 6.68 11 6 C10.01 6.33 9.02 6.66 8 7 C7.67 6.01 7.34 5.02 7 4 C8.98 4 10.96 4 13 4 C13 3.34 13 2.68 13 2 C10.36 2 7.72 2 5 2 C5 5.63 5 9.26 5 13 C6.98 13 8.96 13 11 13 C11 13.33 11 13.66 11 14 C8.69 14 6.38 14 4 14 C3.95101562 13.38511719 3.90203125 12.77023438 3.8515625 12.13671875 C3.77679688 11.32847656 3.70203125 10.52023438 3.625 9.6875 C3.55539063 8.88699219 3.48578125 8.08648437 3.4140625 7.26171875 C3.10435574 4.72775559 3.10435574 4.72775559 1 2 C0.566875 3.423125 0.566875 3.423125 0.125 4.875 C-1 8 -1 8 -3 10 C-3.66 8.35 -4.32 6.7 -5 5 C-3.68 5 -2.36 5 -1 5 C-0.67 3.35 -0.34 1.7 0 0 Z " fill="#3C60CD" transform="translate(133,163)"/>
<path d="M0 0 C0.99 0 1.98 0 3 0 C3.495 2.97 3.495 2.97 4 6 C3.360625 6.103125 2.72125 6.20625 2.0625 6.3125 C1.0415625 6.6528125 1.0415625 6.6528125 0 7 C-0.33 7.99 -0.66 8.98 -1 10 C-2.85625 9.6596875 -2.85625 9.6596875 -4.75 9.3125 C-8.2119917 8.83768771 -8.2119917 8.83768771 -11.3125 10.4375 C-11.869375 10.953125 -12.42625 11.46875 -13 12 C-13.99 12 -14.98 12 -16 12 C-16.33 12.99 -16.66 13.98 -17 15 C-19.4375 14.25 -19.4375 14.25 -22 13 C-22.144375 12.34 -22.28875 11.68 -22.4375 11 C-22.623125 10.34 -22.80875 9.68 -23 9 C-26.17745463 7.61849799 -28.53122824 7 -32 7 C-32.33 6.34 -32.66 5.68 -33 5 C-32.67 4.34 -32.34 3.68 -32 3 C-31.21625 3.020625 -30.4325 3.04125 -29.625 3.0625 C-27.01885039 3.18684063 -27.01885039 3.18684063 -25 2 C-24.01 2.33 -23.02 2.66 -22 3 C-22.33 3.99 -22.66 4.98 -23 6 C-21.05396726 6.59070014 -21.05396726 6.59070014 -19 7 C-18.67 6.67 -18.34 6.34 -18 6 C-15.44380996 5.9684421 -12.90219659 6.06826631 -10.34765625 6.16015625 C-7.80700561 6.24523253 -7.80700561 6.24523253 -6 4 C-2.875 3.875 -2.875 3.875 0 4 C0 2.68 0 1.36 0 0 Z M-1 5 C-1.99 5.495 -1.99 5.495 -3 6 C-3 6.66 -3 7.32 -3 8 C-1.68 7.34 -0.36 6.68 1 6 C0.34 5.67 -0.32 5.34 -1 5 Z " fill="#2B57D2" transform="translate(140,109)"/>
<path d="M0 0 C1.01881955 3.13066574 0.98916158 4.89664857 -0.1171875 7.984375 C-0.52626343 9.12845825 -0.52626343 9.12845825 -0.94360352 10.2956543 C-1.40464478 11.51055542 -1.40464478 11.51055542 -1.875 12.75 C-2.18945068 13.58893799 -2.50390137 14.42787598 -2.82788086 15.29223633 C-7.27759987 26.7546173 -13.23754555 37.44620991 -21 47 C-21.66 46.01 -22.32 45.02 -23 44 C-22.39671875 43.0821875 -21.7934375 42.164375 -21.171875 41.21875 C-14.1165047 30.61522189 -14.1165047 30.61522189 -9 19 C-8.34 19 -7.68 19 -7 19 C-6.896875 17.989375 -6.79375 16.97875 -6.6875 15.9375 C-5.96295233 11.78781792 -4.77730734 8.78643737 -3 5 C-2.34 5 -1.68 5 -1 5 C-0.67 3.35 -0.34 1.7 0 0 Z " fill="#3B61D6" transform="translate(250,160)"/>
<path d="M0 0 C-15.53173818 6.8339648 -30.29378955 8.28341222 -47.0625 8.4375 C-47.7784433 8.44971588 -48.4943866 8.46193176 -49.23202515 8.47451782 C-62.29142906 8.66184113 -73.60888873 6.23427413 -86 2 C-81.62446041 0.64389176 -78.12671434 1.73511135 -73.8125 2.875 C-51.55140418 8.67528552 -27.12501521 7.37436108 -5.46875 -0.328125 C-3 -1 -3 -1 0 0 Z " fill="#6890FC" transform="translate(174,245)"/>
<path d="M0 0 C0.99 0.33 1.98 0.66 3 1 C3 1.66 3 2.32 3 3 C3.99 3.33 4.98 3.66 6 4 C6.6875 6.0625 6.6875 6.0625 7 8 C5.35 8 3.7 8 2 8 C2 7.34 2 6.68 2 6 C1.34 6 0.68 6 0 6 C0 4.02 0 2.04 0 0 Z M10 4 C10.39832031 4.49113281 10.79664062 4.98226562 11.20703125 5.48828125 C13.5121755 7.43183425 14.7196719 7.316536 17.6875 7.1875 C18.89986328 7.14689453 18.89986328 7.14689453 20.13671875 7.10546875 C20.75160156 7.07066406 21.36648437 7.03585938 22 7 C22 6.34 22 5.68 22 5 C23.9375 5.75 23.9375 5.75 26 7 C26.75 9.125 26.75 9.125 27 11 C24.53289984 12.23355008 22.99609852 12.03319737 20.25 11.9375 C16.09907147 11.88335745 12.87240215 12.36951488 9 14 C8.34 11.36 7.68 8.72 7 6 C7.99 6 8.98 6 10 6 C10 5.34 10 4.68 10 4 Z M11 8 C10.67 8.66 10.34 9.32 10 10 C11.32 9.67 12.64 9.34 14 9 C13.01 8.67 12.02 8.34 11 8 Z M22 8 C21.34 8.66 20.68 9.32 20 10 C21.65 10 23.3 10 25 10 C25 9.34 25 8.68 25 8 C24.01 8 23.02 8 22 8 Z " fill="#3361E3" transform="translate(88,147)"/>
<path d="M0 0 C2 2 2 2 2.125 5.625 C2.08375 6.73875 2.0425 7.8525 2 9 C3.32 9 4.64 9 6 9 C6 9.99 6 10.98 6 12 C4.78320012 12.58877414 3.55066269 13.14508862 2.3125 13.6875 C1.62800781 14.00074219 0.94351563 14.31398437 0.23828125 14.63671875 C-2.9632452 15.15633823 -4.43339951 13.82044343 -7 12 C-6.21619539 10.18408626 -5.42271553 8.37234593 -4.625 6.5625 C-4.18414062 5.55316406 -3.74328125 4.54382813 -3.2890625 3.50390625 C-2 1 -2 1 0 0 Z " fill="#3E66F0" transform="translate(152,139)"/>
<path d="M0 0 C5 0 10 0 15 0 C15 1.65 15 3.3 15 5 C11.98968256 5.93423645 11.13349732 6.04449911 8 5 C6.33378384 4.96125079 4.66605828 4.9549714 3 5 C3.33 5.66 3.66 6.32 4 7 C4.66 6.67 5.32 6.34 6 6 C6 7.65 6 9.3 6 11 C4.68 11 3.36 11 2 11 C2 10.01 2 9.02 2 8 C1.34 8 0.68 8 0 8 C0 5.36 0 2.72 0 0 Z " fill="#3B62E6" transform="translate(61,64)"/>
<path d="M0 0 C1.2065625 0.0309375 1.2065625 0.0309375 2.4375 0.0625 C1.4475 0.7225 0.4575 1.3825 -0.5625 2.0625 C-0.81155022 4.81391192 -0.88923572 7.31919812 -0.8125 10.0625 C-0.80734375 10.79984375 -0.8021875 11.5371875 -0.796875 12.296875 C-0.80424259 16.31105667 -0.80424259 16.31105667 0.4375 20.0625 C-0.2225 20.0625 -0.8825 20.0625 -1.5625 20.0625 C-1.8925 20.7225 -2.2225 21.3825 -2.5625 22.0625 C-5.5625 22.0625 -5.5625 22.0625 -8.5625 20.0625 C-8.90307617 18.09130859 -8.90307617 18.09130859 -8.85546875 15.7109375 C-8.84580078 14.86015625 -8.83613281 14.009375 -8.82617188 13.1328125 C-8.80103516 12.24335938 -8.77589844 11.35390625 -8.75 10.4375 C-8.73646484 9.5403125 -8.72292969 8.643125 -8.70898438 7.71875 C-8.67356925 5.49940211 -8.62418461 3.28124812 -8.5625 1.0625 C-8.2325 1.0625 -7.9025 1.0625 -7.5625 1.0625 C-7.5625 6.6725 -7.5625 12.2825 -7.5625 18.0625 C-6.2425 18.0625 -4.9225 18.0625 -3.5625 18.0625 C-3.57410156 16.84691406 -3.58570312 15.63132813 -3.59765625 14.37890625 C-3.60703278 12.79427236 -3.61613313 11.20963682 -3.625 9.625 C-3.63337891 8.82255859 -3.64175781 8.02011719 -3.65039062 7.19335938 C-3.6590143 5.14954779 -3.6147815 3.10566098 -3.5625 1.0625 C-2.5625 0.0625 -2.5625 0.0625 0 0 Z " fill="#4160CA" transform="translate(110.5625,127.9375)"/>
<path d="M0 0 C1.99954746 -0.04254356 4.00041636 -0.04080783 6 0 C6.33 0.33 6.66 0.66 7 1 C9.05396726 0.59070014 9.05396726 0.59070014 11 0 C11.33 0.99 11.66 1.98 12 3 C8.91190305 4.76462683 7.76687864 5 4 5 C3.89042969 5.83144531 3.78085938 6.66289062 3.66796875 7.51953125 C3.50941406 8.60621094 3.35085937 9.69289062 3.1875 10.8125 C3.03667969 11.89144531 2.88585937 12.97039062 2.73046875 14.08203125 C2 17 2 17 -1 20 C-1 15.38 -1 10.76 -1 6 C-0.34 6 0.32 6 1 6 C1.33 5.01 1.66 4.02 2 3 C1.01 2.67 0.02 2.34 -1 2 C-0.67 1.34 -0.34 0.68 0 0 Z " fill="#3361E7" transform="translate(85,157)"/>
<path d="M0 0 C2.64 0 5.28 0 8 0 C8.33 0.99 8.66 1.98 9 3 C9.66 2.34 10.32 1.68 11 1 C11 4.3 11 7.6 11 11 C10.34 10.01 9.68 9.02 9 8 C6.66924071 8.95865509 6.66924071 8.95865509 5 12 C5 10.02 5 8.04 5 6 C2.69 5.67 0.38 5.34 -2 5 C-1.34 3.35 -0.68 1.7 0 0 Z M0 2 C0 2.33 0 2.66 0 3 C1.98 3 3.96 3 6 3 C6 2.67 6 2.34 6 2 C4.02 2 2.04 2 0 2 Z " fill="#3961E6" transform="translate(184,63)"/>
<path d="M0 0 C1.45986328 0.13535156 1.45986328 0.13535156 2.94921875 0.2734375 C5.3125 0.625 5.3125 0.625 6.3125 1.625 C6.4375 4.625 6.4375 4.625 6.3125 7.625 C5.3125 8.625 5.3125 8.625 2.80859375 8.72265625 C1.29458984 8.70525391 1.29458984 8.70525391 -0.25 8.6875 C-1.26191406 8.67847656 -2.27382812 8.66945313 -3.31640625 8.66015625 C-4.49009766 8.64275391 -4.49009766 8.64275391 -5.6875 8.625 C-5.6875 9.285 -5.6875 9.945 -5.6875 10.625 C-3.3775 10.625 -1.0675 10.625 1.3125 10.625 C1.3125 10.955 1.3125 11.285 1.3125 11.625 C-1.3275 11.625 -3.9675 11.625 -6.6875 11.625 C-6.6875 10.305 -6.6875 8.985 -6.6875 7.625 C-1.2425 7.13 -1.2425 7.13 4.3125 6.625 C4.3125 5.635 4.3125 4.645 4.3125 3.625 C-2.6175 3.13 -2.6175 3.13 -9.6875 2.625 C-9.6875 1.965 -9.6875 1.305 -9.6875 0.625 C-6.30720299 -0.45091401 -3.51381868 -0.34715966 0 0 Z " fill="#3C5FC7" transform="translate(130.6875,82.375)"/>
<path d="M0 0 C0.33 0 0.66 0 1 0 C1 2.64 1 5.28 1 8 C0.01 7.67 -0.98 7.34 -2 7 C-2 7.66 -2 8.32 -2 9 C-2.99 9.33 -3.98 9.66 -5 10 C-5 9.34 -5 8.68 -5 8 C-5.99 8 -6.98 8 -8 8 C-7.67 8.99 -7.34 9.98 -7 11 C-8.32 11.33 -9.64 11.66 -11 12 C-11 11.01 -11 10.02 -11 9 C-10.34 9 -9.68 9 -9 9 C-9.33 8.01 -9.66 7.02 -10 6 C-9.360625 5.896875 -8.72125 5.79375 -8.0625 5.6875 C-7.381875 5.460625 -6.70125 5.23375 -6 5 C-5.67 4.01 -5.34 3.02 -5 2 C-3.68 2 -2.36 2 -1 2 C-0.67 1.34 -0.34 0.68 0 0 Z " fill="#3A63E7" transform="translate(194,184)"/>
<path d="M0 0 C0.66 0.33 1.32 0.66 2 1 C-0.98880452 4.34631703 -3.7381769 6.04474468 -7.875 7.75 C-8.88304688 8.17796875 -9.89109375 8.6059375 -10.9296875 9.046875 C-14.12735198 10.0395342 -16.67356148 10.17873401 -20 10 C-16.72139113 7.30944629 -13.29297995 5.62071219 -9.4375 3.875 C-8.30183594 3.35679688 -7.16617188 2.83859375 -5.99609375 2.3046875 C-3 1 -3 1 0 0 Z " fill="#4A66D2" transform="translate(85,9)"/>
<path d="M0 0 C1.010625 0.0825 2.02125 0.165 3.0625 0.25 C3.7225 1.24 4.3825 2.23 5.0625 3.25 C4.0725 3.745 4.0725 3.745 3.0625 4.25 C3.0625 3.59 3.0625 2.93 3.0625 2.25 C2.4025 2.25 1.7425 2.25 1.0625 2.25 C2.7125 5.88 4.3625 9.51 6.0625 13.25 C5.0725 12.92 4.0825 12.59 3.0625 12.25 C3.0625 11.59 3.0625 10.93 3.0625 10.25 C2.0725 10.58 1.0825 10.91 0.0625 11.25 C-2.1461355 7.93704675 -1.9375 7.02546697 -1.9375 3.25 C-2.5975 2.59 -3.2575 1.93 -3.9375 1.25 C-2.9375 0.25 -2.9375 0.25 0 0 Z " fill="#375FD9" transform="translate(123.9375,162.75)"/>
<path d="M0 0 C-7.2406609 3.18589079 -14.228846 5.4877457 -22 6.875 C-22.71728271 7.00688721 -23.43456543 7.13877441 -24.17358398 7.2746582 C-28.04775929 7.91374909 -31.20819667 8.08125642 -35 7 C-35 6.67 -35 6.34 -35 6 C-33.16888672 5.74476563 -33.16888672 5.74476563 -31.30078125 5.484375 C-22.38290425 4.1880875 -13.98255839 2.69998211 -5.46875 -0.328125 C-3 -1 -3 -1 0 0 Z " fill="#648CFC" transform="translate(174,245)"/>
<path d="M0 0 C1.9375 0.75 1.9375 0.75 4 2 C4.75 4.125 4.75 4.125 5 6 C1.93570224 7.53214888 -0.6165642 7.22938548 -4 7 C-6.9375 5.5625 -6.9375 5.5625 -9 4 C-9 3.67 -9 3.34 -9 3 C-4.545 2.505 -4.545 2.505 0 2 C0 1.34 0 0.68 0 0 Z M0 3 C-0.66 3.66 -1.32 4.32 -2 5 C-0.35 5 1.3 5 3 5 C3 4.34 3 3.68 3 3 C2.01 3 1.02 3 0 3 Z " fill="#3460D1" transform="translate(110,152)"/>
<path d="M0 0 C2.05078125 0.03255208 4.1015625 0.06510417 6.15234375 0.09765625 C6.15234375 3.06765625 6.15234375 6.03765625 6.15234375 9.09765625 C5.82234375 9.09765625 5.49234375 9.09765625 5.15234375 9.09765625 C4.49234375 7.11765625 3.83234375 5.13765625 3.15234375 3.09765625 C2.49234375 3.09765625 1.83234375 3.09765625 1.15234375 3.09765625 C0.49234375 5.07765625 -0.16765625 7.05765625 -0.84765625 9.09765625 C-1.50765625 9.09765625 -2.16765625 9.09765625 -2.84765625 9.09765625 C-2.9453125 2.9453125 -2.9453125 2.9453125 -2.84765625 1.09765625 C-1.84765625 0.09765625 -1.84765625 0.09765625 0 0 Z " fill="#3B5CDB" transform="translate(148.84765625,136.90234375)"/>
<path d="M0 0 C2.98118575 2.47321835 3.70761755 4.72260512 4.625 8.4375 C4.86476563 9.38496094 5.10453125 10.33242187 5.3515625 11.30859375 C5.56554687 12.19675781 5.77953125 13.08492187 6 14 C6.33281125 15.33346375 6.66592515 16.66685226 7 18 C6.34 18 5.68 18 5 18 C5 17.34 5 16.68 5 16 C4.34 16 3.68 16 3 16 C1.35199144 12.33552568 0.66419027 9.18796534 0.375 5.1875 C0.30023437 4.21167969 0.22546875 3.23585937 0.1484375 2.23046875 C0.09945313 1.49441406 0.05046875 0.75835937 0 0 Z " fill="#3B5FDB" transform="translate(6,159)"/>
<path d="M0 0 C0.33 0 0.66 0 1 0 C1 1.98 1 3.96 1 6 C1.99 6 2.98 6 4 6 C3.67 4.35 3.34 2.7 3 1 C3.99 0.67 4.98 0.34 6 0 C6 2.31 6 4.62 6 7 C7.32 6.67 8.64 6.34 10 6 C9.34 7.32 8.68 8.64 8 10 C4.28400809 10.20086443 3.22791555 10.1519437 0 8 C-0.40843923 5.28796348 -0.13336867 2.7562858 0 0 Z " fill="#3866E7" transform="translate(61,184)"/>
<path d="M0 0 C-1.57780923 3.71045247 -3.90703248 6.29906384 -6.625 9.25 C-7.44226563 10.14203125 -8.25953125 11.0340625 -9.1015625 11.953125 C-9.72804687 12.62859375 -10.35453125 13.3040625 -11 14 C-11.33 12.68 -11.66 11.36 -12 10 C-11.195625 9.773125 -10.39125 9.54625 -9.5625 9.3125 C-8.716875 8.879375 -7.87125 8.44625 -7 8 C-6.32852082 5.55936559 -6.32852082 5.55936559 -6 3 C-3.93956965 0.28397817 -3.52283097 0 0 0 Z " fill="#4465D4" transform="translate(227,208)"/>
<path d="M0 0 C1 3 1 3 0.375 4.75 C-5.09760682 13.70517479 -5.09760682 13.70517479 -8.1640625 14.70703125 C-9.07285156 14.85205078 -9.07285156 14.85205078 -10 15 C-8.37815499 11.41486894 -6.20743761 8.41007677 -3.875 5.25 C-3.15054687 4.26515625 -2.42609375 3.2803125 -1.6796875 2.265625 C-1.12539063 1.51796875 -0.57109375 0.7703125 0 0 Z " fill="#4966CF" transform="translate(31,46)"/>
<path d="M0 0 C0 0.66 0 1.32 0 2 C1.98 1.34 3.96 0.68 6 0 C6 0.66 6 1.32 6 2 C6.66 2.33 7.32 2.66 8 3 C4.6853333 5.02907167 2.5684021 5.12742133 -1.25 4.625 C-2.14203125 4.51414063 -3.0340625 4.40328125 -3.953125 4.2890625 C-4.96632812 4.14597656 -4.96632812 4.14597656 -6 4 C-6 3.34 -6 2.68 -6 2 C-2.25 0 -2.25 0 0 0 Z " fill="#4067F1" transform="translate(153,176)"/>
<path d="M0 0 C0.33 0 0.66 0 1 0 C1.05819424 3.24992446 1.09366116 6.49971435 1.125 9.75 C1.14175781 10.67039063 1.15851563 11.59078125 1.17578125 12.5390625 C1.18222656 13.42851562 1.18867188 14.31796875 1.1953125 15.234375 C1.20578613 16.05131836 1.21625977 16.86826172 1.22705078 17.70996094 C0.97829916 20.21887518 0.25700129 21.83395625 -1 24 C-1.6939031 17.49866175 -2.31965273 11.46629837 -1 5 C-0.814375 4.030625 -0.62875 3.06125 -0.4375 2.0625 C-0.293125 1.381875 -0.14875 0.70125 0 0 Z " fill="#365ED8" transform="translate(252,136)"/>
<path d="M0 0 C3.63 0.66 7.26 1.32 11 2 C11 2.66 11 3.32 11 4 C6.6835078 4.76173392 3.25566547 5.16063604 -1 4 C-0.67 2.68 -0.34 1.36 0 0 Z " fill="#4066F2" transform="translate(118,176)"/>
<path d="M0 0 C2.475 0.495 2.475 0.495 5 1 C5.33 1.99 5.66 2.98 6 4 C5.01 5.485 5.01 5.485 4 7 C2.68 7 1.36 7 0 7 C0 4.69 0 2.38 0 0 Z " fill="#3F5FC6" transform="translate(91,167)"/>
<path d="M0 0 C3.3 0 6.6 0 10 0 C10.33 0.66 10.66 1.32 11 2 C10.34 2.66 9.68 3.32 9 4 C7.68 4 6.36 4 5 4 C5 3.34 5 2.68 5 2 C3.68 2.99 2.36 3.98 1 5 C0.34 4.67 -0.32 4.34 -1 4 C-0.67 2.68 -0.34 1.36 0 0 Z " fill="#3762D3" transform="translate(122,115)"/>
<path d="M0 0 C1.5 1.1875 1.5 1.1875 3 3 C3.1875 5.6875 3.1875 5.6875 3 8 C3.66 8 4.32 8 5 8 C5 6.35 5 4.7 5 3 C5.33 3 5.66 3 6 3 C6 4.65 6 6.3 6 8 C6.99 7.67 7.98 7.34 9 7 C9.33 7.99 9.66 8.98 10 10 C7.36 9.67 4.72 9.34 2 9 C2 7.35 2 5.7 2 4 C1.34 4 0.68 4 0 4 C0 2.68 0 1.36 0 0 Z M8 5 C8.66 5 9.32 5 10 5 C9.67 5.66 9.34 6.32 9 7 C8.67 6.34 8.34 5.68 8 5 Z " fill="#3C61DB" transform="translate(159,168)"/>
<path d="M0 0 C1.98 0 3.96 0 6 0 C6 2.31 6 4.62 6 7 C4.35 7 2.7 7 1 7 C1 6.01 1 5.02 1 4 C2.32 4 3.64 4 5 4 C2.525 3.01 2.525 3.01 0 2 C0 1.34 0 0.68 0 0 Z " fill="#3E5BCA" transform="translate(102,167)"/>
<path d="M0 0 C1.98 0 3.96 0 6 0 C6.103125 0.598125 6.20625 1.19625 6.3125 1.8125 C7.08876455 4.28243264 8.07088921 5.32251235 10 7 C9.34 7.66 8.68 8.32 8 9 C7.01 8.67 6.02 8.34 5 8 C5.66 8 6.32 8 7 8 C7 7.34 7 6.68 7 6 C6.21625 5.7525 5.4325 5.505 4.625 5.25 C1.67682892 3.84610901 1.0975223 2.99324263 0 0 Z " fill="#2B5EE0" transform="translate(132,146)"/>
<path d="M0 0 C0.99 0 1.98 0 3 0 C4.37553268 3.82092412 3.81309902 7.08234111 3 11 C2.01 11.495 2.01 11.495 1 12 C0.34 11.67 -0.32 11.34 -1 11 C-0.01 8.03 0.98 5.06 2 2 C1.34 2 0.68 2 0 2 C0 1.34 0 0.68 0 0 Z " fill="#345CCE" transform="translate(127,130)"/>
<path d="M0 0 C0.66 0.66 1.32 1.32 2 2 C1.7578125 4.1640625 1.7578125 4.1640625 1.125 6.625 C0.92132813 7.44226563 0.71765625 8.25953125 0.5078125 9.1015625 C0.34023437 9.72804687 0.17265625 10.35453125 0 11 C1.32 10.67 2.64 10.34 4 10 C4.33 8.35 4.66 6.7 5 5 C5.33 5 5.66 5 6 5 C6 7.31 6 9.62 6 12 C3.69 12 1.38 12 -1 12 C-1.02698189 10.37509046 -1.04638757 8.75005367 -1.0625 7.125 C-1.07410156 6.22007813 -1.08570313 5.31515625 -1.09765625 4.3828125 C-1 2 -1 2 0 0 Z " fill="#3861E4" transform="translate(148,121)"/>
<path d="M0 0 C0.99 0 1.98 0 3 0 C3 0.66 3 1.32 3 2 C3.99 2.33 4.98 2.66 6 3 C3.80601826 5.19398174 3.02143183 5.6546935 0 6 C-2.75 5.0625 -2.75 5.0625 -5 4 C-4.67 3.34 -4.34 2.68 -4 2 C-3.01 2 -2.02 2 -1 2 C-0.67 1.34 -0.34 0.68 0 0 Z " fill="#3460DF" transform="translate(160,114)"/>
<path d="M0 0 C1.875 0.1875 1.875 0.1875 4 1 C5.1875 3.4375 5.1875 3.4375 6 6 C6.33 6.66 6.66 7.32 7 8 C5.0625 7.625 5.0625 7.625 3 7 C2.67 6.34 2.34 5.68 2 5 C1.34 5 0.68 5 0 5 C-0.33 5.66 -0.66 6.32 -1 7 C-0.67 4.69 -0.34 2.38 0 0 Z " fill="#2F54E2" transform="translate(134,73)"/>
<path d="M0 0 C1.65 0 3.3 0 5 0 C5.33 2.31 5.66 4.62 6 7 C4.02 7 2.04 7 0 7 C0 6.01 0 5.02 0 4 C1.32 4 2.64 4 4 4 C4 3.34 4 2.68 4 2 C3.01 2.33 2.02 2.66 1 3 C0.67 2.01 0.34 1.02 0 0 Z " fill="#4160BE" transform="translate(140,167)"/>
<path d="M0 0 C1.49828872 3.88235819 0.43110582 6.43449288 -0.9375 10.25 C-1.31777344 11.32765625 -1.69804687 12.4053125 -2.08984375 13.515625 C-2.39019531 14.33546875 -2.69054687 15.1553125 -3 16 C-5 13 -5 13 -4.7578125 10.95703125 C-4.171875 8.97135417 -3.5859375 6.98567708 -3 5 C-2.34 5 -1.68 5 -1 5 C-0.67 3.35 -0.34 1.7 0 0 Z " fill="#3C5BC7" transform="translate(250,160)"/>
<path d="M0 0 C5.23435005 4.27293882 9.67106815 8.81580806 14 14 C13.67 14.66 13.34 15.32 13 16 C10.82529395 13.71584679 8.66166755 11.42149089 6.5 9.125 C5.56994141 8.14853516 5.56994141 8.14853516 4.62109375 7.15234375 C4.03457031 6.52714844 3.44804687 5.90195312 2.84375 5.2578125 C2.29912109 4.6817627 1.75449219 4.10571289 1.19335938 3.51220703 C0 2 0 2 0 0 Z " fill="#517BFC" transform="translate(213,39)"/>
<path d="M0 0 C0.33 0.99 0.66 1.98 1 3 C-3.25800538 4.41933513 -7.22911538 4.72651677 -11.4375 3 C-11.953125 2.67 -12.46875 2.34 -13 2 C-12.236875 1.855625 -11.47375 1.71125 -10.6875 1.5625 C-2.8537234 -0.07712766 -2.8537234 -0.07712766 0 0 Z " fill="#4068F3" transform="translate(115,177)"/>
<path d="M0 0 C2.31459868 1.81817001 2.95377187 2.75615543 3.51171875 5.69921875 C3.56972656 6.68535156 3.62773437 7.67148438 3.6875 8.6875 C3.75324219 9.68136719 3.81898438 10.67523438 3.88671875 11.69921875 C3.92410156 12.45847656 3.96148437 13.21773437 4 14 C3.67 13.01 3.34 12.02 3 11 C2.34 11 1.68 11 1 11 C-0.17571451 7.32589215 -0.07366746 3.83070817 0 0 Z " fill="#3857CE" transform="translate(250,99)"/>
<path d="M0 0 C3.3 0 6.6 0 10 0 C8 3 8 3 6.0546875 3.51171875 C5.33539063 3.56972656 4.61609375 3.62773438 3.875 3.6875 C1.956875 3.8421875 1.956875 3.8421875 0 4 C0 2.68 0 1.36 0 0 Z " fill="#2A54E2" transform="translate(125,99)"/>
<path d="M0 0 C-2.10171867 0.8394882 -4.20646625 1.67139656 -6.3125 2.5 C-7.48425781 2.9640625 -8.65601563 3.428125 -9.86328125 3.90625 C-13 5 -13 5 -16 5 C-16 4.34 -16 3.68 -16 3 C-13.89936424 2.30178583 -11.79434263 1.61675528 -9.6875 0.9375 C-8.51574219 0.55464844 -7.34398437 0.17179688 -6.13671875 -0.22265625 C-3 -1 -3 -1 0 0 Z " fill="#537CFB" transform="translate(174,245)"/>
<path d="M0 0 C1.5625 1.25 1.5625 1.25 3 3 C3.0625 4.9375 3.0625 4.9375 2 7 C-1.0625 9.25 -1.0625 9.25 -4 11 C-4.66 10.67 -5.32 10.34 -6 10 C-5.195625 9.0925 -4.39125 8.185 -3.5625 7.25 C-1.58857329 4.89690092 -0.36122533 3.13061954 0 0 Z " fill="#456FF6" transform="translate(211,215)"/>
<path d="M0 0 C3.16115776 1.36983503 3.9927092 1.9890638 6 5 C6 5.99 6 6.98 6 8 C6.99 8.33 7.98 8.66 9 9 C8.67 9.99 8.34 10.98 8 12 C8 11.34 8 10.68 8 10 C7.01 9.67 6.02 9.34 5 9 C2.37884447 6.14756605 0.57468925 3.87915244 0 0 Z " fill="#3556DC" transform="translate(31,209)"/>
<path d="M0 0 C0.33 0 0.66 0 1 0 C1 2.31 1 4.62 1 7 C1.66 7 2.32 7 3 7 C3 9.31 3 11.62 3 14 C1.00971125 12.33607581 0.08974532 11.35962232 -0.546875 8.80859375 C-0.61390625 8.02613281 -0.6809375 7.24367187 -0.75 6.4375 C-0.82734375 5.65246094 -0.9046875 4.86742187 -0.984375 4.05859375 C-1 2 -1 2 0 0 Z " fill="#3966E1" transform="translate(170,163)"/>
<path d="M0 0 C2.64 0 5.28 0 8 0 C7.5 1.9375 7.5 1.9375 6 4 C3.30341548 4.68790422 0.7982981 4.81946464 -2 5 C-1.34 3.35 -0.68 1.7 0 0 Z " fill="#4266D9" transform="translate(184,63)"/>
<path d="M0 0 C0 2.97 0 5.94 0 9 C-0.33 8.01 -0.66 7.02 -1 6 C-1.99 6 -2.98 6 -4 6 C-4.33 7.32 -4.66 8.64 -5 10 C-5.33 9.34 -5.66 8.68 -6 8 C-3.05263158 0 -3.05263158 0 0 0 Z " fill="#375EDE" transform="translate(137,167)"/>
<path d="M0 0 C4.29 0.99 8.58 1.98 13 3 C12.67 3.66 12.34 4.32 12 5 C3.42857143 4.14285714 3.42857143 4.14285714 0 2 C0 1.34 0 0.68 0 0 Z " fill="#3962E0" transform="translate(88,247)"/>
<path d="M0 0 C1.44010481 0.25662245 2.8770687 0.53090821 4.3125 0.8125 C5.11300781 0.96332031 5.91351563 1.11414063 6.73828125 1.26953125 C9.23445587 2.07572236 10.32422106 3.02052002 12 5 C6.71201818 4.58525633 3.88309282 3.64775386 0 0 Z " fill="#3C5EDC" transform="translate(193,23)"/>
<path d="M0 0 C0.33 0.66 0.66 1.32 1 2 C4.465 1.505 4.465 1.505 8 1 C7.34 2.98 6.68 4.96 6 7 C5.34 6.01 4.68 5.02 4 4 C2.68 4 1.36 4 0 4 C-0.33 3.01 -0.66 2.02 -1 1 C-0.67 0.67 -0.34 0.34 0 0 Z " fill="#3761DF" transform="translate(126,74)"/>
<path d="M0 0 C7.48291572 6.15034169 7.48291572 6.15034169 10 10 C7.07909997 8.69063102 5.24380538 7.24380538 3 5 C2.01 4.67 1.02 4.34 0 4 C0 2.68 0 1.36 0 0 Z " fill="#405EC9" transform="translate(210,32)"/>
<path d="M0 0 C1.98 0 3.96 0 6 0 C5.34 1.98 4.68 3.96 4 6 C3.01 5.67 2.02 5.34 1 5 C0.67 3.35 0.34 1.7 0 0 Z " fill="#486DF4" transform="translate(83,242)"/>
<path d="M0 0 C0.99 0.33 1.98 0.66 3 1 C2.01 2.485 2.01 2.485 1 4 C0.60612212 6.32387947 0.26513915 8.65793749 0 11 C-2 8 -2 8 -1.6875 4.375 C-1 1 -1 1 0 0 Z " fill="#355BE4" transform="translate(147,163)"/>
<path d="M0 0 C0.66 0 1.32 0 2 0 C1.60196439 2.88575819 1.20990931 3.82189513 -1.0625 5.75 C-1.701875 6.1625 -2.34125 6.575 -3 7 C-4.02104551 6.02149805 -5.0206121 5.02019573 -6 4 C-6 3.67 -6 3.34 -6 3 C-5.195625 2.87625 -4.39125 2.7525 -3.5625 2.625 C-2.716875 2.41875 -1.87125 2.2125 -1 2 C-0.67 1.34 -0.34 0.68 0 0 Z " fill="#245FE7" transform="translate(153,152)"/>
<path d="M0 0 C0.89203125 0.11085938 1.7840625 0.22171875 2.703125 0.3359375 C3.37859375 0.43132813 4.0540625 0.52671875 4.75 0.625 C4.75 0.955 4.75 1.285 4.75 1.625 C-0.27125926 2.40416092 -4.22703996 2.75516601 -9.25 1.625 C-5.9353333 -0.40407167 -3.8184021 -0.50242133 0 0 Z " fill="#4866D0" transform="translate(103.25,5.375)"/>
<path d="M0 0 C-2.68841859 2.25245881 -4.64641875 3.88213958 -8 5 C-8 3.68 -8 2.36 -8 1 C-5.29120665 -0.35439668 -2.99066732 -0.06501451 0 0 Z " fill="#4262CA" transform="translate(195,237)"/>
<path d="M0 0 C4.75 1.875 4.75 1.875 7 3 C7 3.66 7 4.32 7 5 C2.25 4.125 2.25 4.125 0 3 C0 2.01 0 1.02 0 0 Z " fill="#365ADB" transform="translate(52,229)"/>
<path d="M0 0 C0.66 0 1.32 0 2 0 C2 2.64 2 5.28 2 8 C1.01 8 0.02 8 -1 8 C-1.04241723 5.66705225 -1.04092937 3.33297433 -1 1 C-0.67 0.67 -0.34 0.34 0 0 Z " fill="#466EF1" transform="translate(63,182)"/>
<path d="M0 0 C0.99 1.32 1.98 2.64 3 4 C0.125 4.1875 0.125 4.1875 -3 4 C-3.66 3.01 -4.32 2.02 -5 1 C-3.35 0.67 -1.7 0.34 0 0 Z " fill="#2358D7" transform="translate(106,154)"/>
<path d="M0 0 C1.65 0 3.3 0 5 0 C5 2.97 5 5.94 5 9 C4.67 9 4.34 9 4 9 C3.67 6.69 3.34 4.38 3 2 C2.01 2 1.02 2 0 2 C0 1.34 0 0.68 0 0 Z " fill="#5165BA" transform="translate(150,137)"/>
<path d="M0 0 C0.33 0 0.66 0 1 0 C1.36923077 7.50769231 1.36923077 7.50769231 -0.5 10 C-0.995 10.33 -1.49 10.66 -2 11 C-2.33 9.68 -2.66 8.36 -3 7 C-2.34 6.67 -1.68 6.34 -1 6 C-0.34227572 2.97065509 -0.34227572 2.97065509 0 0 Z " fill="#3C64DA" transform="translate(125,130)"/>
<path d="M0 0 C0.33 0 0.66 0 1 0 C1.33 4.29 1.66 8.58 2 13 C1.01 13.495 1.01 13.495 0 14 C-0.66 13.34 -1.32 12.68 -2 12 C-1.34 11.34 -0.68 10.68 0 10 C0.24287489 7.55987051 0.24287489 7.55987051 0.125 4.875 C0.10695312 3.96492187 0.08890625 3.05484375 0.0703125 2.1171875 C0.04710937 1.41851562 0.02390625 0.71984375 0 0 Z " fill="#375AE0" transform="translate(2,127)"/>
<path d="M0 0 C1.41750563 0.11509661 2.83401169 0.24253658 4.25 0.375 C5.03890625 0.44460937 5.8278125 0.51421875 6.640625 0.5859375 C9.085877 1.01507113 10.84836903 1.78600638 13 3 C11.20906809 3.08086147 9.41710372 3.13912702 7.625 3.1875 C6.12839844 3.23970703 6.12839844 3.23970703 4.6015625 3.29296875 C3.74304688 3.19628906 2.88453125 3.09960938 2 3 C1.34 2.01 0.68 1.02 0 0 Z " fill="#405EC3" transform="translate(149,4)"/>
<path d="M0 0 C3.3 0 6.6 0 10 0 C10.33 0.99 10.66 1.98 11 3 C7.37 2.34 3.74 1.68 0 1 C0 0.67 0 0.34 0 0 Z " fill="#3F5DC7" transform="translate(93,251)"/>
<path d="M0 0 C2.475 0.495 2.475 0.495 5 1 C4.67 1.99 4.34 2.98 4 4 C2.68 4 1.36 4 0 4 C0 2.68 0 1.36 0 0 Z " fill="#475FB6" transform="translate(150,167)"/>
<path d="M0 0 C2.00720923 0.28674418 4.0085944 0.61866701 6 1 C6 1.66 6 2.32 6 3 C4.02 3.66 2.04 4.32 0 5 C-0.5625 3.0625 -0.5625 3.0625 -1 1 C-0.67 0.67 -0.34 0.34 0 0 Z " fill="#315ED1" transform="translate(97,156)"/>
<path d="M0 0 C0.66 0 1.32 0 2 0 C1.74438677 2.3431213 1.40729228 4.67843403 1 7 C0.01 7.495 0.01 7.495 -1 8 C-1.125 2.25 -1.125 2.25 0 0 Z " fill="#4561DB" transform="translate(3,110)"/>
<path d="M0 0 C1.9375 0.3125 1.9375 0.3125 4 1 C4.33 1.99 4.66 2.98 5 4 C5.66 4 6.32 4 7 4 C6.67 4.99 6.34 5.98 6 7 C3.95880212 5.38405168 1.95927063 3.7143618 0 2 C0 1.34 0 0.68 0 0 Z " fill="#3B61DD" transform="translate(139,76)"/>
<path d="M0 0 C0.99 0 1.98 0 3 0 C2.67 1.65 2.34 3.3 2 5 C1.01 4.67 0.02 4.34 -1 4 C-0.67 2.68 -0.34 1.36 0 0 Z " fill="#2D5EE0" transform="translate(131,122)"/>
<path d="M0 0 C0.66 0 1.32 0 2 0 C2 0.66 2 1.32 2 2 C3.65 2 5.3 2 7 2 C7 2.66 7 3.32 7 4 C1.25 4.125 1.25 4.125 -1 3 C-0.67 2.01 -0.34 1.02 0 0 Z " fill="#3361E9" transform="translate(120,111)"/>
</svg>
