<?xml version="1.0" encoding="UTF-8"?>
<svg version="1.1" xmlns="http://www.w3.org/2000/svg" width="256" height="258">
<path d="M0 0 C84.48 0 168.96 0 256 0 C256 85.14 256 170.28 256 258 C171.52 258 87.04 258 0 258 C0 172.86 0 87.72 0 0 Z " fill="#3F66F1" transform="translate(0,0)"/>
<path d="M0 0 C84.48 0 168.96 0 256 0 C256 85.14 256 170.28 256 258 C171.52 258 87.04 258 0 258 C0 172.86 0 87.72 0 0 Z M92 7 C91.31389648 7.21430664 90.62779297 7.42861328 89.92089844 7.64941406 C69.68301535 14.16155724 53.29422431 25.43714507 38 40 C37.27941406 40.65613281 36.55882812 41.31226563 35.81640625 41.98828125 C15.60666429 60.97811927 2.79192247 90.805496 1.5899353 118.32487488 C1.49027342 121.92589238 1.47874961 125.52286035 1.5 129.125 C1.50076538 129.88125671 1.50153076 130.63751343 1.50231934 131.41668701 C1.56245424 147.97426711 4.00735586 162.90739774 11 178 C11.75410156 179.80404297 11.75410156 179.80404297 12.5234375 181.64453125 C25.59819984 211.35675571 50.57579592 235.15261142 80.5625 247.375 C111.52281854 258.97283361 147.72050298 259.97572805 178.2265625 246.14453125 C190.13229582 240.47533308 200.93093392 233.52365562 211 225 C211.8353125 224.30003906 212.670625 223.60007813 213.53125 222.87890625 C234.53694073 204.693424 246.9698817 179.7317298 253 153 C253.17740723 152.42878418 253.35481445 151.85756836 253.53759766 151.26904297 C254.24290645 147.80803982 254.22399004 144.33552914 254.2734375 140.81640625 C254.29229759 139.61099182 254.29229759 139.61099182 254.3115387 138.38122559 C254.61193449 114.55718635 252.74101965 94.57837132 242 73 C241.29230469 71.5459375 241.29230469 71.5459375 240.5703125 70.0625 C229.82171122 49.17256304 213.08929944 32.02727457 193 20 C192.33033203 19.59313965 191.66066406 19.1862793 190.97070312 18.76708984 C179.94446606 12.17920225 168.48296169 7.96738402 156 5 C155.18563477 4.80567383 154.37126953 4.61134766 153.53222656 4.41113281 C145.23299332 2.66408972 136.9406282 2.60207043 128.5 2.625 C127.74777161 2.62554382 126.99554321 2.62608765 126.22052002 2.62664795 C114.43132761 2.66581887 103.29018899 3.39394547 92 7 Z " fill="#FDFDFE" transform="translate(0,0)"/>
<path d="M0 0 C6.25327191 2.77105775 10.5711446 8.00239379 14.0546875 13.7578125 C15.97561086 22.72212152 14.05314657 28.54067058 9.6171875 36.3828125 C9.6171875 36.7128125 9.6171875 37.0428125 9.6171875 37.3828125 C10.7309375 37.3003125 11.8446875 37.2178125 12.9921875 37.1328125 C19.29136065 37.17740842 24.94768491 39.07219332 29.73828125 43.21875 C35.21304963 49.16018263 37.17843414 54.66321089 36.99609375 62.72265625 C36.1076235 68.96026698 33.1184102 74.44873516 28.3046875 78.5078125 C27.4178125 79.1265625 26.5309375 79.7453125 25.6171875 80.3828125 C31.0621875 80.8778125 31.0621875 80.8778125 36.6171875 81.3828125 C36.64184631 85.35212239 36.66002773 89.32140284 36.67211914 93.29077148 C36.67715807 94.64201636 36.68398927 95.99325576 36.69262695 97.34448242 C36.70471169 99.28301684 36.70988578 101.2215905 36.71484375 103.16015625 C36.72008057 104.32796631 36.72531738 105.49577637 36.73071289 106.69897461 C36.6171875 109.3828125 36.6171875 109.3828125 35.6171875 110.3828125 C32.88368002 110.48329773 30.17540858 110.51897511 27.44140625 110.51220703 C26.15612534 110.51483551 26.15612534 110.51483551 24.84487915 110.51751709 C21.9981283 110.52193667 19.15143903 110.51899725 16.3046875 110.515625 C14.33553048 110.51629801 12.36637353 110.51726801 10.3972168 110.51852417 C6.26447765 110.52000129 2.13176008 110.51784614 -2.00097656 110.51318359 C-7.31105771 110.5074863 -12.62108831 110.51076523 -17.9311676 110.51675606 C-21.99906803 110.5203613 -26.06695639 110.51922326 -30.13485718 110.51662827 C-32.09337368 110.51595889 -34.05189126 110.51678777 -36.01040649 110.51910782 C-38.7426445 110.52163374 -41.47479947 110.51779461 -44.20703125 110.51220703 C-45.43357925 110.51524338 -45.43357925 110.51524338 -46.68490601 110.51834106 C-52.26855004 110.49707496 -52.26855004 110.49707496 -53.3828125 109.3828125 C-53.47048362 107.31019174 -53.48977123 105.23460956 -53.48046875 103.16015625 C-53.47724609 101.90009766 -53.47402344 100.64003906 -53.47070312 99.34179688 C-53.46234653 98.00130141 -53.45388157 96.66080662 -53.4453125 95.3203125 C-53.4402991 93.97591308 -53.43573592 92.6315119 -53.43164062 91.28710938 C-53.41980738 87.98563309 -53.40332221 84.68424447 -53.3828125 81.3828125 C-47.9378125 80.8878125 -47.9378125 80.8878125 -42.3828125 80.3828125 C-43.4553125 79.5990625 -44.5278125 78.8153125 -45.6328125 78.0078125 C-50.70804571 73.62231686 -52.79964912 68.36275224 -53.76171875 61.796875 C-54.04481448 55.86099675 -52.94768129 51.17900087 -49.3828125 46.3828125 C-44.8111674 41.54393136 -40.36176799 37.65129803 -33.48828125 37.1875 C-32.52535156 37.21070313 -31.56242187 37.23390625 -30.5703125 37.2578125 C-29.59449219 37.27585938 -28.61867188 37.29390625 -27.61328125 37.3125 C-26.50919922 37.34730469 -26.50919922 37.34730469 -25.3828125 37.3828125 C-25.73214844 36.85171875 -26.08148438 36.320625 -26.44140625 35.7734375 C-27.12396484 34.71382812 -27.12396484 34.71382812 -27.8203125 33.6328125 C-28.27277344 32.93671875 -28.72523437 32.240625 -29.19140625 31.5234375 C-32.01840969 26.44410017 -32.26946505 20.66963917 -30.76953125 15.109375 C-28.1361179 8.31122424 -23.62953659 4.05039759 -17.5234375 0.21484375 C-12.21477269 -1.84856064 -5.44578774 -1.4105483 0 0 Z " fill="#D5DCF4" transform="translate(136.3828125,74.6171875)"/>
<path d="M0 0 C27.72 0 55.44 0 84 0 C84 7.59 84 15.18 84 23 C56.28 23 28.56 23 0 23 C0 15.41 0 7.82 0 0 Z " fill="#5174F1" transform="translate(86,159)"/>
<path d="M0 0 C2.24493935 -0.00960505 4.48892142 -0.04062546 6.73364258 -0.07226562 C16.49598269 -0.14393373 25.35083197 0.91570007 34.8449707 3.24023438 C35.62477295 3.42312012 36.4045752 3.60600586 37.20800781 3.79443359 C67.46822663 11.32033071 94.93562326 33.33346713 111.1574707 59.60742188 C119.17660987 73.18136589 124.54996411 86.82484557 127.8449707 102.24023438 C128.02237793 102.9757251 128.19978516 103.71121582 128.38256836 104.46899414 C128.99860016 108.16095662 129.06586675 111.82341623 129.1184082 115.55664062 C129.13089096 116.36175079 129.14337372 117.16686096 129.15623474 117.99636841 C129.56958179 151.02877666 129.56958179 151.02877666 123.8449707 166.24023438 C123.47243164 167.31273437 123.09989258 168.38523438 122.71606445 169.49023438 C121.56741266 172.4999422 120.26486141 175.34855094 118.8449707 178.24023438 C118.53575684 178.88025391 118.22654297 179.52027344 117.90795898 180.1796875 C112.89905752 190.44972015 107.26753188 199.53670469 99.8449707 208.24023438 C99.3720459 208.80210449 98.89912109 209.36397461 98.41186523 209.94287109 C89.29796902 220.68024633 89.29796902 220.68024633 83.8449707 221.24023438 C81.61088957 222.23107404 81.61088957 222.23107404 79.8449707 223.24023438 C82.11423083 220.1200017 84.5130403 217.61989552 87.4699707 215.17773438 C108.42335343 197.14536225 121.33485818 168.3120068 124.55981445 141.16601562 C126.94376434 108.34588362 120.26407304 75.06409713 98.4699707 49.36523438 C97.08574807 47.80225371 95.68096333 46.26450624 94.25268555 44.74169922 C93.31760535 43.74434522 92.39326238 42.7368099 91.48022461 41.71923828 C74.10715052 22.35854041 50.91361804 11.68361228 25.8449707 6.24023438 C24.17047852 5.87091797 24.17047852 5.87091797 22.4621582 5.49414062 C-4.94088294 0.41301407 -34.18394645 6.45222683 -58.1550293 20.24023438 C-59.15920898 20.81773438 -60.16338867 21.39523438 -61.19799805 21.99023438 C-88.91752423 38.87998799 -108.15806491 65.69114977 -115.93896484 97.01977539 C-120.04728952 114.27853425 -121.05932913 132.8352767 -117.1550293 150.24023438 C-117.0096875 150.92585449 -116.8643457 151.61147461 -116.71459961 152.31787109 C-113.47146837 167.31330726 -108.00439259 181.6183534 -99.1550293 194.24023438 C-99.4850293 194.90023437 -99.8150293 195.56023437 -100.1550293 196.24023438 C-111.94117386 179.68947817 -117.39712156 161.93251066 -121.1550293 142.24023438 C-122.1450293 143.23023438 -122.1450293 143.23023438 -123.1550293 144.24023438 C-123.23051192 139.54869915 -123.28424276 134.85753515 -123.31982422 130.16552734 C-123.33469335 128.5772484 -123.35499484 126.98900882 -123.38134766 125.40087891 C-123.61517763 110.92176045 -122.27054363 97.29428843 -116.9675293 83.67773438 C-116.66709717 82.88818359 -116.36666504 82.09863281 -116.05712891 81.28515625 C-109.6255812 64.85798733 -100.27743298 51.04999084 -88.1550293 38.24023438 C-87.44604492 37.47839844 -86.73706055 36.7165625 -86.0065918 35.93164062 C-63.62643605 12.62234484 -32.02552158 0.08251342 0 0 Z " fill="#708DF1" transform="translate(125.155029296875,2.759765625)"/>
<path d="M0 0 C5.00341172 2.23862016 8.01597377 5.56155248 10.60546875 10.3515625 C12.63549355 16.4416369 12.49161091 22.38209315 9.60546875 28.1640625 C6.73904541 32.6547924 3.71835198 35.65271312 -1.39453125 37.3515625 C-7.30029121 38.16017511 -12.43825151 38.25983524 -17.89453125 35.7265625 C-23.40602809 30.4906405 -27.32230182 25.87279903 -27.83203125 18.0390625 C-27.68309943 12.07186074 -24.97670516 7.89585611 -20.796875 3.77734375 C-14.63141412 -1.50950108 -7.85560509 -2.12729273 0 0 Z " fill="#4268F1" transform="translate(113.39453125,116.6484375)"/>
<path d="M0 0 C4.81445283 3.4708846 9.28080752 8.0293916 10.6875 13.9375 C11.52470287 19.88966834 10.8266799 24.15985897 7.28125 29.07421875 C3.49984346 33.49512787 0.41439522 36.50413034 -5.5078125 37.4453125 C-10.5024598 37.61597243 -14.25012957 37.43074342 -18.8125 35.3125 C-24.32353599 30.07701581 -28.27079166 25.47524747 -28.6875 17.625 C-28.53724277 11.98096261 -26.70012519 7.5102619 -22.8515625 3.36328125 C-16.54996187 -2.21859342 -7.82406267 -2.50960501 0 0 Z " fill="#446AF1" transform="translate(159.3125,117.0625)"/>
<path d="M0 0 C4.82440762 2.14418117 7.68651033 5.00604786 10.69921875 9.296875 C12.53157632 14.7939477 12.87648145 21.26334745 10.7578125 26.72265625 C7.783108 31.67428035 4.28369991 35.43538128 -1.30078125 37.296875 C-7.16439845 37.77441926 -12.48067391 38.15903111 -17.86328125 35.609375 C-22.03037381 31.65597949 -25.8540755 27.6419739 -26.63671875 21.78125 C-26.7270925 15.45508766 -26.3730266 10.34866044 -22.30078125 5.296875 C-15.8138534 -0.9881775 -8.66268217 -2.6473392 0 0 Z " fill="#4369F1" transform="translate(135.30078125,77.703125)"/>
<path d="M0 0 C0.66 0 1.32 0 2 0 C4.95755077 5.66863897 6.05746738 10.61742903 5 17 C3.60408368 20.50917853 1.85621286 23.71848084 0 27 C0 27.33 0 27.66 0 28 C1.670625 27.87625 1.670625 27.87625 3.375 27.75 C9.69914264 27.79477269 15.35372073 29.70368157 20.15625 33.87109375 C23.50296903 37.49899204 25.3004726 40.03421907 26 45 C25.34 45 24.68 45 24 45 C23.505 45.99 23.505 45.99 23 47 C22.78085938 46.48050781 22.56171875 45.96101563 22.3359375 45.42578125 C19.97509859 40.23385503 17.67728891 37.28405391 13 34 C9.96478606 32.98826202 7.80266921 32.83426486 4.625 32.8125 C3.68914062 32.79832031 2.75328125 32.78414062 1.7890625 32.76953125 C-4.04041278 33.25123859 -7.22798932 35.63240869 -11 40 C-14.22056721 44.88637784 -14.87954388 49.29746277 -14 55 C-12.2598969 59.97937194 -9.46619277 64.03863683 -6 68 C-6.66 68 -7.32 68 -8 68 C-7.01 69.32 -6.02 70.64 -5 72 C-13.58 72 -22.16 72 -31 72 C-30.01 71.505 -30.01 71.505 -29 71 C-29 69.35 -29 67.7 -29 66 C-27.515 65.505 -27.515 65.505 -26 65 C-24.87914688 62.6569191 -24.87914688 62.6569191 -24 60 C-23.48179688 59.07960938 -23.48179688 59.07960938 -22.953125 58.140625 C-20.63433615 52.93285331 -21.81727618 46.40673746 -23 41 C-22.67 40.34 -22.34 39.68 -22 39 C-23.39092892 36.37612865 -23.39092892 36.37612865 -25 34 C-21.37 34 -17.74 34 -14 34 C-13.67 33.34 -13.34 32.68 -13 32 C-15.97 32 -18.94 32 -22 32 C-22 31.67 -22 31.34 -22 31 C-21.13117188 30.91363281 -20.26234375 30.82726562 -19.3671875 30.73828125 C-10.03714844 29.6567248 -10.03714844 29.6567248 -3 24 C0.98522329 18.55352817 0.45286707 12.47077375 0 6 C-0.19078125 5.07316406 -0.3815625 4.14632812 -0.578125 3.19140625 C-0.71734375 2.46824219 -0.8565625 1.74507813 -1 1 C-0.67 0.67 -0.34 0.34 0 0 Z " fill="#D3DBF4" transform="translate(146,84)"/>
<path d="M0 0 C0.99 0.33 1.98 0.66 3 1 C3.74683539 8.80028077 2.45758084 14.49216234 -2 21 C-3.90670739 22.98708382 -5.72744485 24.41449641 -8 26 C-4.37 26.33 -0.74 26.66 3 27 C3 36.24 3 45.48 3 55 C-16.14 55 -35.28 55 -55 55 C-54.67 54.34 -54.34 53.68 -54 53 C-36.18 53 -18.36 53 0 53 C0 45.41 0 37.82 0 30 C-23.1 30 -46.2 30 -70 30 C-66.63918526 25.51891368 -66.63918526 25.51891368 -62.625 24.875 C-59.20160183 24.24951779 -56.19086407 23.44103539 -53 22 C-53 23.32 -53 24.64 -53 26 C-45.74 26 -38.48 26 -31 26 C-31.495 24.515 -31.495 24.515 -32 23 C-30.71222656 23.23396484 -30.71222656 23.23396484 -29.3984375 23.47265625 C-18.44879724 25.20170344 -18.44879724 25.20170344 -8.4375 21.4375 C-2.11876279 15.70531224 -0.57820556 10.60469838 -0.078125 2.16015625 C-0.05234375 1.44730469 -0.0265625 0.73445312 0 0 Z " fill="#DFE4F4" transform="translate(170,129)"/>
<path d="M0 0 C0.99 0.495 0.99 0.495 2 1 C1.67 5.95 1.34 10.9 1 16 C2.258125 15.87625 3.51625 15.7525 4.8125 15.625 C5.52019531 15.55539063 6.22789063 15.48578125 6.95703125 15.4140625 C9.29988142 15.07334609 9.29988142 15.07334609 12 13 C12 13.99 12 14.98 12 16 C18.6 16 25.2 16 32 16 C32.33 15.34 32.66 14.68 33 14 C33 14.66 33 15.32 33 16 C36.11332248 15.33131686 36.11332248 15.33131686 37.1875 12.9375 C37.455625 12.298125 37.72375 11.65875 38 11 C38.99 11.33 39.98 11.66 41 12 C41.6875 14.0625 41.6875 14.0625 42 16 C42.99 16 43.98 16 45 16 C45.103125 15.4225 45.20625 14.845 45.3125 14.25 C46.09792798 11.67950842 47.30504197 10.06342716 49 8 C49 10.64 49 13.28 49 16 C53.95 16 58.9 16 64 16 C64 15.01 64 14.02 64 13 C64.99 13 65.98 13 67 13 C67 13.99 67 14.98 67 16 C67.99 16 68.98 16 70 16 C70.33 14.35 70.66 12.7 71 11 C72.32 11 73.64 11 75 11 C75 12.65 75 14.3 75 16 C75.99 16 76.98 16 78 16 C77.95875 15.071875 77.9175 14.14375 77.875 13.1875 C78 10 78 10 80 7 C80.66 7 81.32 7 82 7 C82 11.62 82 16.24 82 21 C54.94 21 27.88 21 0 21 C0 14.07 0 7.14 0 0 Z " fill="#4168F1" transform="translate(87,160)"/>
<path d="M0 0 C1.1725131 0.95117134 2.33787015 1.91117009 3.5 2.875 C4.47453125 3.67550781 4.47453125 3.67550781 5.46875 4.4921875 C5.9740625 4.98976562 6.479375 5.48734375 7 6 C7 6.66 7 7.32 7 8 C7.66 8 8.32 8 9 8 C9 8.66 9 9.32 9 10 C9.66 10 10.32 10 11 10 C11 10.66 11 11.32 11 12 C11.66 12 12.32 12 13 12 C13 12.66 13 13.32 13 14 C13.56976563 14.25523437 14.13953125 14.51046875 14.7265625 14.7734375 C17.25530811 16.13774355 19.19337272 17.75609745 21.375 19.625 C47.09868864 40.42207576 79.73691679 47.23655546 112.14453125 44.72265625 C131.90360932 42.51317468 152.12289828 35.04766526 168 23 C168.66 23.33 169.32 23.66 170 24 C147.92614527 41.64773476 120.5069208 47.37548752 92.89892578 47.37060547 C90.13641802 47.37498191 87.37550855 47.4114338 84.61328125 47.44921875 C73.73057167 47.51875703 64.32638919 46.56240019 54 43 C53.21415527 42.73348633 52.42831055 42.46697266 51.61865234 42.19238281 C35.43097675 36.26181074 14.74164442 24.61246664 5 10 C4.87625 9.360625 4.7525 8.72125 4.625 8.0625 C3.78315925 5.28442552 2.05717354 3.9908131 0 2 C0 1.34 0 0.68 0 0 Z " fill="#879FF2" transform="translate(31,206)"/>
<path d="M0 0 C0.33 0 0.66 0 1 0 C3.99808988 19.10562332 3.4319576 39.70384241 -3 58 C-3.37253906 59.0828125 -3.74507812 60.165625 -4.12890625 61.28125 C-5.2838482 64.27524587 -6.58554599 67.11938871 -8 70 C-8.4638208 70.9600293 -8.4638208 70.9600293 -8.93701172 71.93945312 C-13.94591318 82.20948577 -19.57743883 91.29647032 -27 100 C-27.4729248 100.56187012 -27.94584961 101.12374023 -28.43310547 101.70263672 C-37.54700169 112.44001196 -37.54700169 112.44001196 -43 113 C-45.23408113 113.99083967 -45.23408113 113.99083967 -47 115 C-44.73073987 111.87976732 -42.33193041 109.37966114 -39.375 106.9375 C-23.82556722 93.55573908 -11.36291339 72.6679206 -6.5703125 52.6875 C-6 51 -6 51 -4 50 C-3.34094585 48.18946308 -3.34094585 48.18946308 -2.9375 46 C-2.78152344 45.278125 -2.62554687 44.55625 -2.46484375 43.8125 C-0.90750417 34.38994122 -0.69506702 24.96117201 -0.4375 15.4375 C-0.39421638 13.93683922 -0.3505993 12.43618803 -0.30664062 10.93554688 C-0.20058203 7.29046701 -0.09903743 3.64527818 0 0 Z " fill="#6785F1" transform="translate(252,111)"/>
<path d="M0 0 C2.92995911 1.31533004 4.92765212 2.70881902 7.12890625 5.0390625 C7.96905273 5.90917969 7.96905273 5.90917969 8.82617188 6.796875 C9.98947895 8.02168424 11.15092168 9.24826676 12.31054688 10.4765625 C12.86935547 11.0540625 13.42816406 11.6315625 14.00390625 12.2265625 C14.50736572 12.75846191 15.0108252 13.29036133 15.52954102 13.83837891 C17.08002467 15.30994252 17.08002467 15.30994252 20 15 C21.69032717 16.90123038 23.11843535 18.73308073 24.5625 20.8125 C24.99651123 21.4319751 25.43052246 22.0514502 25.87768555 22.68969727 C37.93579663 40.37651811 49.31533186 63.07780237 48 85 C47.67 85 47.34 85 47 85 C46.98018066 85.68924561 46.96036133 86.37849121 46.93994141 87.08862305 C46.01541537 117.6669385 46.01541537 117.6669385 42 130 C41.67 130 41.34 130 41 130 C41.83280153 121.94958519 41.83280153 121.94958519 42.51171875 118.09375 C48.08256695 85.53787117 41.0492274 53.53528957 23 26 C17.0025859 17.62521272 9.60737489 10.4192051 2.23828125 3.265625 C0 1 0 1 0 0 Z " fill="#6A88F1" transform="translate(206,33)"/>
<path d="M0 0 C0.66 0 1.32 0 2 0 C2.33 1.98 2.66 3.96 3 6 C3.66 6 4.32 6 5 6 C5.33 5.34 5.66 4.68 6 4 C7.81192986 5.81192986 7.51604958 8.7355503 7.8125 11.1875 C8.61181991 16.63957761 9.46608551 19.8235556 13 24 C13.5775 24.78375 14.155 25.5675 14.75 26.375 C15.1625 26.91125 15.575 27.4475 16 28 C15.34 28 14.68 28 14 28 C14.99 29.32 15.98 30.64 17 32 C8.42 32 -0.16 32 -9 32 C-8.34 31.67 -7.68 31.34 -7 31 C-7 29.35 -7 27.7 -7 26 C-6.01 25.67 -5.02 25.34 -4 25 C-2.87914688 22.6569191 -2.87914688 22.6569191 -2 20 C-1.48179688 19.07960937 -1.48179688 19.07960937 -0.953125 18.140625 C1.35490302 12.95702108 0.21487074 6.38014187 -1 1 C-0.67 0.67 -0.34 0.34 0 0 Z " fill="#DDE3F5" transform="translate(124,124)"/>
<path d="M0 0 C1.48831242 0.00667405 2.97660807 0.01863442 4.46484375 0.03515625 C5.22345703 0.03966797 5.98207031 0.04417969 6.76367188 0.04882812 C8.64326246 0.06064945 10.52281274 0.07858547 12.40234375 0.09765625 C12.96484375 2.03515625 12.96484375 2.03515625 13.40234375 4.09765625 C12.40234375 5.09765625 12.40234375 5.09765625 9.6796875 5.1953125 C8.02646484 5.17791016 8.02646484 5.17791016 6.33984375 5.16015625 C4.68275391 5.14662109 4.68275391 5.14662109 2.9921875 5.1328125 C2.13753906 5.12121094 1.28289062 5.10960938 0.40234375 5.09765625 C0.40234375 6.08765625 0.40234375 7.07765625 0.40234375 8.09765625 C1.70171875 8.07703125 3.00109375 8.05640625 4.33984375 8.03515625 C5.69400008 8.01366171 7.04990458 8.02617426 8.40234375 8.09765625 C9.40234375 9.09765625 9.40234375 9.09765625 9.46484375 11.66015625 C9.44421875 12.46453125 9.42359375 13.26890625 9.40234375 14.09765625 C6.76234375 14.09765625 4.12234375 14.09765625 1.40234375 14.09765625 C1.40234375 15.08765625 1.40234375 16.07765625 1.40234375 17.09765625 C5.03234375 17.09765625 8.66234375 17.09765625 12.40234375 17.09765625 C12.73234375 18.41765625 13.06234375 19.73765625 13.40234375 21.09765625 C12.40234375 22.09765625 12.40234375 22.09765625 8.5859375 22.1953125 C7.00387693 22.18863714 5.42183216 22.176675 3.83984375 22.16015625 C3.03353516 22.15564453 2.22722656 22.15113281 1.39648438 22.14648438 C-0.60159381 22.13466143 -2.59963408 22.11672539 -4.59765625 22.09765625 C-4.62653439 18.61850684 -4.64441312 15.13938794 -4.66015625 11.66015625 C-4.66853516 10.66693359 -4.67691406 9.67371094 -4.68554688 8.65039062 C-4.68876953 7.70615234 -4.69199219 6.76191406 -4.6953125 5.7890625 C-4.70054932 4.91451416 -4.70578613 4.03996582 -4.71118164 3.13891602 C-4.51159164 -0.44984102 -3.73704548 0.10143989 0 0 Z " fill="#F5F7FC" transform="translate(123.59765625,84.90234375)"/>
<path d="M0 0 C0.99 0.99 0.99 0.99 2 2 C-20.94623819 24.16236049 -53.04851299 34.55493886 -84.52270508 34.29418945 C-91.7597239 34.10829183 -98.86214783 33.17911422 -106 32 C-106 31.34 -106 30.68 -106 30 C-104.3754187 30.01571045 -104.3754187 30.01571045 -102.71801758 30.03173828 C-98.63829959 30.06837587 -94.55859564 30.09105699 -90.47875977 30.10986328 C-88.72450299 30.11982244 -86.97026237 30.13339466 -85.21606445 30.15087891 C-58.55173147 30.40968202 -31.53621666 24.77231533 -10 8 C-9.46375 7.278125 -8.9275 6.55625 -8.375 5.8125 C-6.57994143 3.44628643 -4.75310613 2.98829451 -2 2 C-1.34 1.34 -0.68 0.68 0 0 Z " fill="#4E72F0" transform="translate(210,222)"/>
<path d="M0 0 C22.21321633 -0.73472601 45.14954725 14.21416643 60.95019531 28.80029297 C64.74099982 32.43306748 68.40033532 36.17843818 72 40 C71.67 40.99 71.34 41.98 71 43 C70.57178955 42.5560791 70.1435791 42.1121582 69.70239258 41.65478516 C67.74710286 39.63691561 65.78001401 37.63094917 63.8125 35.625 C63.13896484 34.92632812 62.46542969 34.22765625 61.77148438 33.5078125 C60.78051758 32.50234375 60.78051758 32.50234375 59.76953125 31.4765625 C59.16729736 30.85861816 58.56506348 30.24067383 57.94458008 29.60400391 C55.73908331 27.78478058 53.66765948 26.99104158 51 26 C49.37005255 24.90795551 47.74204335 23.81215619 46.14355469 22.67456055 C31.67211532 12.40369765 16.18121097 6.96196439 -1 3 C-0.67 2.01 -0.34 1.02 0 0 Z " fill="#6281F1" transform="translate(152,6)"/>
<path d="M0 0 C1.65 0 3.3 0 5 0 C5 2.97 5 5.94 5 9 C7.97 9 10.94 9 14 9 C14 6.03 14 3.06 14 0 C15.65 0 17.3 0 19 0 C19 6.93 19 13.86 19 21 C17.35 21.33 15.7 21.66 14 22 C14 19.03 14 16.06 14 13 C11.03 13 8.06 13 5 13 C5 15.97 5 18.94 5 22 C3.35 21.67 1.7 21.34 0 21 C0 14.07 0 7.14 0 0 Z " fill="#F8FAFB" transform="translate(141,125)"/>
<path d="M0 0 C7.26 0 14.52 0 22 0 C22 1.32 22 2.64 22 4 C19.36 4 16.72 4 14 4 C14 9.61 14 15.22 14 21 C12.35 21.33 10.7 21.66 9 22 C8 21 8 21 7.90234375 17.18359375 C7.90901911 15.60153318 7.92098125 14.01948841 7.9375 12.4375 C7.94201172 11.63119141 7.94652344 10.82488281 7.95117188 9.99414062 C7.96299482 7.99606244 7.98093086 5.99802217 8 4 C5.69 4 3.38 4 1 4 C0.67 2.68 0.34 1.36 0 0 Z " fill="#EDF1FB" transform="translate(94,125)"/>
<path d="M0 0 C0.33 0 0.66 0 1 0 C1.18792114 1.07145264 1.18792114 1.07145264 1.37963867 2.16455078 C7.00291697 34.90208373 7.00291697 34.90208373 24.5625 62.5 C27.16777829 65.1720803 28.37099102 67.67115557 30 71 C32.06167261 73.31418291 32.06167261 73.31418291 34 75 C33.505 76.485 33.505 76.485 33 78 C25.86620267 71.64161543 21.05774791 64.01889016 16 56 C15.32195313 54.9378125 14.64390625 53.875625 13.9453125 52.78125 C9.84258869 46.09011245 7.23285693 39.50198193 5 32 C4.46298426 30.4567071 3.92167701 28.91489712 3.375 27.375 C0.36058586 18.18350771 -0.27253286 9.65977599 0 0 Z " fill="#476CF0" transform="translate(3,138)"/>
<path d="M0 0 C2.97 0 5.94 0 9 0 C9 8.91 9 17.82 9 27 C-9.81 27 -28.62 27 -48 27 C-47.67 26.34 -47.34 25.68 -47 25 C-29.18 25 -11.36 25 7 25 C7 17.41 7 9.82 7 2 C4.69 2 2.38 2 0 2 C0 1.34 0 0.68 0 0 Z " fill="#EBEEF5" transform="translate(163,157)"/>
<path d="M0 0 C4.62 0 9.24 0 14 0 C14 2.97 14 5.94 14 9 C15.65 9 17.3 9 19 9 C19 9.66 19 10.32 19 11 C12.73 11 6.46 11 0 11 C0 7.37 0 3.74 0 0 Z " fill="#5879F0" transform="translate(100,165)"/>
<path d="M0 0 C0.66 0 1.32 0 2 0 C2.32871094 0.88751953 2.32871094 0.88751953 2.6640625 1.79296875 C4.9374458 7.4579442 7.04715709 10.44687356 12 14 C12.66 14.66 13.32 15.32 14 16 C5.42 16 -3.16 16 -12 16 C-10.35 14.68 -8.7 13.36 -7 12 C-3.42334666 8.1738127 -1.33088213 5.08154995 0 0 Z " fill="#466BF1" transform="translate(127,140)"/>
<path d="M0 0 C1.0979187 -0.0049926 1.0979187 -0.0049926 2.21801758 -0.01008606 C3.75764339 -0.01512362 5.29728001 -0.01749537 6.83691406 -0.01733398 C9.18052217 -0.01952473 11.52366219 -0.03772538 13.8671875 -0.05664062 C15.36979007 -0.05957446 16.87239486 -0.06155932 18.375 -0.0625 C19.06891846 -0.06968552 19.76283691 -0.07687103 20.4777832 -0.08427429 C24.75379291 -0.06436815 28.21058701 0.60743242 32.1875 2.16796875 C32.1875 2.49796875 32.1875 2.82796875 32.1875 3.16796875 C31.19121582 3.1522583 30.19493164 3.13654785 29.16845703 3.12036133 C3.50314784 2.54190118 3.50314784 2.54190118 -21.8125 6.16796875 C-23.85318777 6.56881813 -25.89471802 6.96543208 -27.9375 7.35546875 C-29.21625 7.62359375 -30.495 7.89171875 -31.8125 8.16796875 C-32.1425 7.50796875 -32.4725 6.84796875 -32.8125 6.16796875 C-29.7720402 5.35090708 -26.72993317 4.54014855 -23.6875 3.73046875 C-22.8315625 3.50037109 -21.975625 3.27027344 -21.09375 3.03320312 C-20.25585938 2.81083984 -19.41796875 2.58847656 -18.5546875 2.359375 C-17.7901123 2.15513916 -17.02553711 1.95090332 -16.23779297 1.74047852 C-10.80123336 0.45713522 -5.57471209 0.00894006 0 0 Z " fill="#4369F0" transform="translate(118.8125,2.83203125)"/>
<path d="M0 0 C1 2 1 2 1 5 C-1.79048836 10.62211415 -5.40400966 15.08163852 -9.5625 19.75 C-10.4277832 20.73806641 -10.4277832 20.73806641 -11.31054688 21.74609375 C-18.64344307 30.08546589 -18.64344307 30.08546589 -24 31 C-26.23408113 31.99083967 -26.23408113 31.99083967 -28 33 C-25.73073987 29.87976732 -23.33193041 27.37966114 -20.375 24.9375 C-12.21460624 17.94940161 -5.64592694 9.08856532 0 0 Z " fill="#7893F2" transform="translate(233,193)"/>
<path d="M0 0 C4.51371004 1.39041447 8.58699956 3.21139669 12.8125 5.3125 C18.41479039 8.01047486 24.03090978 10.13344096 30 11.875 C30.69327393 12.07778564 31.38654785 12.28057129 32.10083008 12.48950195 C36.39418749 13.68828647 40.58835174 14.46003263 45 15 C42.14235846 17.85764154 39.99396586 17.72915414 36 18 C33.30142303 17.50562507 30.85833387 16.95850049 28.25 16.1875 C27.59128906 16.00896484 26.93257812 15.83042969 26.25390625 15.64648438 C23.08188711 14.75535932 20.76561649 13.84374433 18 12 C18.66 11.67 19.32 11.34 20 11 C19.42967041 10.73783691 18.85934082 10.47567383 18.27172852 10.20556641 C15.69893595 9.01852753 13.1307146 7.82190916 10.5625 6.625 C9.66466797 6.2125 8.76683594 5.8 7.84179688 5.375 C6.98779297 4.97539062 6.13378906 4.57578125 5.25390625 4.1640625 C4.46314697 3.79748535 3.6723877 3.4309082 2.85766602 3.05322266 C1 2 1 2 0 0 Z " fill="#738FF1" transform="translate(64,235)"/>
<path d="M0 0 C12.04264711 3.15305794 22.67591032 16.30807003 31 25 C30.505 26.485 30.505 26.485 30 28 C29.57178955 27.5560791 29.1435791 27.1121582 28.70239258 26.65478516 C26.74710286 24.63691561 24.78001401 22.63094917 22.8125 20.625 C22.13896484 19.92632812 21.46542969 19.22765625 20.77148438 18.5078125 C20.11083984 17.8375 19.45019531 17.1671875 18.76953125 16.4765625 C18.16729736 15.85861816 17.56506348 15.24067383 16.94458008 14.60400391 C14.73773291 12.78366669 12.66988472 11.99118943 10 11 C7.68503594 9.49649462 5.4314444 7.97603056 3.1875 6.375 C2.59001953 5.95476563 1.99253906 5.53453125 1.37695312 5.1015625 C-0.08520565 4.07220272 -1.54304899 3.0367177 -3 2 C-2.01 1.34 -1.02 0.68 0 0 Z " fill="#6382F1" transform="translate(193,21)"/>
<path d="M0 0 C1.90318884 2.85478326 2.4619099 4.41941308 3.125 7.6875 C3.29257813 8.49574219 3.46015625 9.30398437 3.6328125 10.13671875 C3.75398437 10.75160156 3.87515625 11.36648437 4 12 C4.66 11.34 5.32 10.68 6 10 C7.10228696 14.40914783 7.07654536 18.48382401 7 23 C6.67 23 6.34 23 6 23 C5.970271 24.03386841 5.970271 24.03386841 5.93994141 25.08862305 C5.01541537 55.6669385 5.01541537 55.6669385 1 68 C0.67 68 0.34 68 0 68 C0.83280153 59.94958519 0.83280153 59.94958519 1.51171875 56.09375 C4.22272368 40.25071411 4.02785241 24.10790368 0.65625 8.3984375 C0.09226235 5.47778716 -0.13598754 2.95772907 0 0 Z " fill="#8BA3F2" transform="translate(247,95)"/>
<path d="M0 0 C6.40818182 -0.36272727 6.40818182 -0.36272727 8.9375 1.1875 C10.38718434 3.66049093 10.42317323 5.17884512 10 8 C8.9375 9.8125 8.9375 9.8125 7 11 C3.3125 11.1875 3.3125 11.1875 0 11 C0 7.37 0 3.74 0 0 Z " fill="#E0E6F8" transform="translate(89,165)"/>
<path d="M0 0 C0 0.33 0 0.66 0 1 C-2.64 1 -5.28 1 -8 1 C-8 1.66 -8 2.32 -8 3 C-6.02 3 -4.04 3 -2 3 C-2 3.33 -2 3.66 -2 4 C-2.87011719 4.03867188 -2.87011719 4.03867188 -3.7578125 4.078125 C-10.53052005 4.56987274 -14.59892568 6.25591506 -19.1875 11.5 C-19.785625 12.325 -20.38375 13.15 -21 14 C-21.5775 14.763125 -22.155 15.52625 -22.75 16.3125 C-23.1625 16.869375 -23.575 17.42625 -24 18 C-24.66 17.67 -25.32 17.34 -26 17 C-25.19051853 11.1082045 -22.26452925 7.95873936 -18 4 C-12.3050859 -0.22412017 -6.91819805 -0.51035887 0 0 Z " fill="#CFD7F4" transform="translate(110,112)"/>
<path d="M0 0 C2.05078125 0.03255208 4.1015625 0.06510417 6.15234375 0.09765625 C6.15234375 1.08765625 6.15234375 2.07765625 6.15234375 3.09765625 C4.17234375 3.09765625 2.19234375 3.09765625 0.15234375 3.09765625 C0.15234375 3.75765625 0.15234375 4.41765625 0.15234375 5.09765625 C1.80234375 5.09765625 3.45234375 5.09765625 5.15234375 5.09765625 C5.48234375 7.40765625 5.81234375 9.71765625 6.15234375 12.09765625 C3.18234375 12.09765625 0.21234375 12.09765625 -2.84765625 12.09765625 C-2.87452904 10.28523573 -2.8939934 8.47270392 -2.91015625 6.66015625 C-2.92175781 5.65082031 -2.93335938 4.64148438 -2.9453125 3.6015625 C-2.81063978 0.1485539 -2.81063978 0.1485539 0 0 Z " fill="#D8E1F8" transform="translate(139.84765625,163.90234375)"/>
<path d="M0 0 C3.375 -0.125 3.375 -0.125 7 0 C9 2 9 2 9.1953125 4.1640625 C9.17210937 4.97617188 9.14890625 5.78828125 9.125 6.625 C9.10695312 7.44226563 9.08890625 8.25953125 9.0703125 9.1015625 C9.03550781 10.04128906 9.03550781 10.04128906 9 11 C8.01 11 7.02 11 6 11 C6 10.01 6 9.02 6 8 C5.01 8 4.02 8 3 8 C3 8.99 3 9.98 3 11 C2.01 11 1.02 11 0 11 C0 7.37 0 3.74 0 0 Z " fill="#EAEEF8" transform="translate(148,165)"/>
<path d="M0 0 C2.92995911 1.31533004 4.92765212 2.70881902 7.12890625 5.0390625 C7.96905273 5.90917969 7.96905273 5.90917969 8.82617188 6.796875 C9.98947895 8.02168424 11.15092168 9.24826676 12.31054688 10.4765625 C12.86935547 11.0540625 13.42816406 11.6315625 14.00390625 12.2265625 C14.50736572 12.75846191 15.0108252 13.29036133 15.52954102 13.83837891 C17.08002467 15.30994252 17.08002467 15.30994252 20 15 C21.82421875 17.1875 21.82421875 17.1875 23.6875 20 C24.31011719 20.928125 24.93273437 21.85625 25.57421875 22.8125 C26.27998047 23.8953125 26.27998047 23.8953125 27 25 C26.34 26.32 25.68 27.64 25 29 C24.36835938 28.15179688 23.73671875 27.30359375 23.0859375 26.4296875 C16.84131756 18.19389207 10.10120232 10.85245308 2.67578125 3.66796875 C1.79277344 2.78753906 0.90976563 1.90710937 0 1 C0 0.67 0 0.34 0 0 Z " fill="#7893F2" transform="translate(206,33)"/>
<path d="M0 0 C2.97 0 5.94 0 9 0 C9 0.66 9 1.32 9 2 C7.02 2 5.04 2 3 2 C3 2.66 3 3.32 3 4 C4.65 4 6.3 4 8 4 C8.33 6.31 8.66 8.62 9 11 C6.03 11 3.06 11 0 11 C0 7.37 0 3.74 0 0 Z " fill="#EBEFF9" transform="translate(100,165)"/>
<path d="M0 0 C-3.2352972 3.71767116 -6.88203656 3.91362405 -11.5625 4.5625 C-13.18638044 4.80869495 -14.81008031 5.05608394 -16.43359375 5.3046875 C-17.21718262 5.42166992 -18.00077148 5.53865234 -18.80810547 5.65917969 C-22.90236254 6.29580064 -26.94579214 7.14992416 -31 8 C-31.33 7.34 -31.66 6.68 -32 6 C-28.9595402 5.18293833 -25.91743317 4.3721798 -22.875 3.5625 C-22.0190625 3.33240234 -21.163125 3.10230469 -20.28125 2.86523438 C-13.41745826 1.04368964 -7.14495391 -0.14289908 0 0 Z " fill="#4A6EF0" transform="translate(118,3)"/>
<path d="M0 0 C13 6.5 13 6.5 26 13 C26 13.33 26 13.66 26 14 C20.69021949 13.49753995 16.60128 12.13875772 11.875 9.625 C11.28074219 9.32078125 10.68648437 9.0165625 10.07421875 8.703125 C8.37152974 7.82359028 6.68531628 6.91238163 5 6 C4.03320312 5.49210938 3.06640625 4.98421875 2.0703125 4.4609375 C1.38710938 3.97882813 0.70390625 3.49671875 0 3 C0 2.01 0 1.02 0 0 Z " fill="#4E71F0" transform="translate(59,233)"/>
<path d="M0 0 C4.62 0 9.24 0 14 0 C12.73046875 1.953125 11.4609375 3.90625 10.19140625 5.859375 C9.0391991 7.92957014 8.45323018 9.68696324 8 12 C7.34 12 6.68 12 6 12 C5.31640625 10.33984375 4.6328125 8.6796875 3.94921875 7.01953125 C2.80719894 4.58980185 1.38128401 2.30214002 0 0 Z " fill="#4B6FF1" transform="translate(121,118)"/>
<path d="M0 0 C0.33 0 0.66 0 1 0 C0.64412561 7.50364938 -1.39781898 12.56487436 -5.0625 19.0625 C-5.53494141 19.92810547 -6.00738281 20.79371094 -6.49414062 21.68554688 C-7.64962 23.79808998 -8.81816565 25.90212408 -10 28 C-10.99 27.67 -11.98 27.34 -13 27 C-12.67725098 26.39526855 -12.35450195 25.79053711 -12.02197266 25.16748047 C-10.55152904 22.40583824 -9.08821589 19.64047804 -7.625 16.875 C-7.11710938 15.92367187 -6.60921875 14.97234375 -6.0859375 13.9921875 C-3.66641367 9.40782656 -1.40268663 5.01925215 0 0 Z " fill="#476CF0" transform="translate(245,170)"/>
<path d="M0 0 C0.33 0.66 0.66 1.32 1 2 C1.66 2 2.32 2 3 2 C3 7.28 3 12.56 3 18 C2.01 18.33 1.02 18.66 0 19 C-2.76373827 13.47252347 -2.6553658 8.2937803 -1 2.5 C-0.67 1.675 -0.34 0.85 0 0 Z " fill="#D9DFF4" transform="translate(107,86)"/>
<path d="M0 0 C0 3.6183035 -0.63461138 4.02951744 -2.9375 6.6875 C-6.91679536 11.59880955 -9.88737738 16.87875062 -12.89038086 22.41479492 C-14.73398341 25.80371574 -16.55656133 28.99209607 -19 32 C-18.43687918 26.96155059 -16.06342452 23.17236327 -13.5625 18.875 C-13.15451172 18.15957031 -12.74652344 17.44414063 -12.32617188 16.70703125 C-10.62519704 13.73795609 -8.8994308 10.8491462 -7 8 C-7.66 7.67 -8.32 7.34 -9 7 C-7.71034824 5.62437146 -6.37310707 4.29233607 -5 3 C-4.34 3 -3.68 3 -3 3 C-1.37485532 1.54166642 -1.37485532 1.54166642 0 0 Z " fill="#91A7F2" transform="translate(33,49)"/>
<path d="M0 0 C1.1725131 0.95117134 2.33787015 1.91117009 3.5 2.875 C4.47453125 3.67550781 4.47453125 3.67550781 5.46875 4.4921875 C5.9740625 4.98976562 6.479375 5.48734375 7 6 C7 6.66 7 7.32 7 8 C7.66 8 8.32 8 9 8 C9 8.66 9 9.32 9 10 C9.66 10 10.32 10 11 10 C11 10.66 11 11.32 11 12 C11.66 12 12.32 12 13 12 C13 12.66 13 13.32 13 14 C13.61875 14.268125 14.2375 14.53625 14.875 14.8125 C17 16 17 16 19 19 C18.443125 18.690625 17.88625 18.38125 17.3125 18.0625 C15.05085156 16.87277649 15.05085156 16.87277649 12.5625 16.75 C8.69924345 15.61929077 7.27143051 13.21785989 5 10 C4.64830932 8.67139075 4.31229724 7.33841672 4 6 C2.68671343 4.64691687 1.35500919 3.31129922 0 2 C0 1.34 0 0.68 0 0 Z " fill="#7994F2" transform="translate(31,206)"/>
<path d="M0 0 C1 2 1 2 1 5 C-1.83756702 10.78863672 -5.63925558 15.2840264 -10 20 C-10.66 19.34 -11.32 18.68 -12 18 C-11.54625 17.608125 -11.0925 17.21625 -10.625 16.8125 C-8.87345985 15.07560494 -8.87345985 15.07560494 -8.125 12.71875 C-6.87640482 9.70131165 -5.28085689 7.33452346 -3.375 4.6875 C-2.74335938 3.80449219 -2.11171875 2.92148438 -1.4609375 2.01171875 C-0.97882813 1.34785156 -0.49671875 0.68398437 0 0 Z " fill="#6181F1" transform="translate(233,193)"/>
<path d="M0 0 C4.73705154 2.94749874 7.95315059 5.20840158 9.9375 10.5 C11.15471587 13.36403734 12.7049999 14.93449991 15 17 C14.67 17.99 14.34 18.98 14 20 C8.51966917 14.96942277 3.72326919 9.4732826 0 3 C0 2.01 0 1.02 0 0 Z " fill="#5A7CF0" transform="translate(22,196)"/>
<path d="M0 0 C3 1 3 1 4.1875 3.0625 C4.455625 3.701875 4.72375 4.34125 5 5 C5.433125 4.175 5.86625 3.35 6.3125 2.5 C6.869375 1.675 7.42625 0.85 8 0 C8.99 0 9.98 0 11 0 C10.39301257 4.12751449 8.96189209 7.3321148 7 11 C6.01 11 5.02 11 4 11 C3.32591692 9.73308493 2.66099503 8.46129251 2 7.1875 C1.62875 6.47980469 1.2575 5.77210938 0.875 5.04296875 C0 3 0 3 0 0 Z " fill="#E3E9F8" transform="translate(125,165)"/>
<path d="M0 0 C2.25 0 2.25 0 5 1 C6.23119674 2.90235453 7.10626552 4.84932093 8.01953125 6.921875 C9.29504888 9.62536256 11.03943513 11.75935443 13 14 C12.34 14 11.68 14 11 14 C10.67 14.66 10.34 15.32 10 16 C2.14806378 7.92255125 2.14806378 7.92255125 2 2 C1.34 2 0.68 2 0 2 C0 1.34 0 0.68 0 0 Z " fill="#D0D9F4" transform="translate(127,138)"/>
<path d="M0 0 C3.3 0 6.6 0 10 0 C10 0.66 10 1.32 10 2 C11.65 2 13.3 2 15 2 C15 2.99 15 3.98 15 5 C13.33333333 6.66666667 11.66666667 8.33333333 10 10 C8.680982 12.66533035 8.680982 12.66533035 8 15 C7.01 14.34 6.02 13.68 5 13 C6.09068668 9.22454612 6.9083091 6.52956528 10 4 C9.67 3.01 9.34 2.02 9 1 C6.03 1 3.06 1 0 1 C0 0.67 0 0.34 0 0 Z " fill="#D7DEF4" transform="translate(124,115)"/>
<path d="M0 0 C0.66 0.33 1.32 0.66 2 1 C-0.01449508 3.06902277 -2.03618059 5.13010888 -4.0625 7.1875 C-4.62388672 7.76564453 -5.18527344 8.34378906 -5.76367188 8.93945312 C-9.57930941 12.79869795 -13.50339763 15.95834922 -18 19 C-17.13846882 14.63553982 -15.071619 12.214485 -12 9 C-11.37222656 8.86078125 -10.74445312 8.7215625 -10.09765625 8.578125 C-7.1659974 7.77014454 -5.82872839 6.12016481 -3.75 3.9375 C-2.69039062 2.83728516 -2.69039062 2.83728516 -1.609375 1.71484375 C-1.07828125 1.14894531 -0.5471875 0.58304688 0 0 Z " fill="#6E8BF1" transform="translate(46,35)"/>
<path d="M0 0 C0.556875 0.2475 1.11375 0.495 1.6875 0.75 C-0.35392311 2.47945489 -2.39563202 4.20857048 -4.4375 5.9375 C-5.00726563 6.42025391 -5.57703125 6.90300781 -6.1640625 7.40039062 C-9.86591695 10.53434695 -13.58267932 13.649374 -17.3125 16.75 C-17.3125 13.75 -17.3125 13.75 -15.30078125 11.41015625 C-14.41777344 10.55292969 -13.53476562 9.69570313 -12.625 8.8125 C-11.75488281 7.95785156 -10.88476562 7.10320313 -9.98828125 6.22265625 C-2.91358559 -0.31498223 -2.91358559 -0.31498223 0 0 Z " fill="#456AF0" transform="translate(53.3125,28.25)"/>
<path d="M0 0 C1.485 0.99 1.485 0.99 3 2 C3 2.66 3 3.32 3 4 C4.65 2.68 6.3 1.36 8 0 C8.33 0.99 8.66 1.98 9 3 C8.01 4.485 8.01 4.485 7 6 C6.60986284 7.9896995 6.26797351 9.99019869 6 12 C5.01 12 4.02 12 3 12 C2.71125 11.113125 2.4225 10.22625 2.125 9.3125 C1.16851252 6.49617576 0.13201054 3.74916844 -1 1 C-0.67 0.67 -0.34 0.34 0 0 Z " fill="#E9EEF9" transform="translate(159,164)"/>
<path d="M0 0 C1.90318884 2.85478326 2.4619099 4.41941308 3.125 7.6875 C3.29257813 8.49574219 3.46015625 9.30398437 3.6328125 10.13671875 C3.75398437 10.75160156 3.87515625 11.36648437 4 12 C4.66 11.34 5.32 10.68 6 10 C7.10228696 14.40914783 7.07654536 18.48382401 7 23 C5.68 22.67 4.36 22.34 3 22 C2.49465273 19.27172635 1.99556155 16.54255306 1.5 13.8125 C1.35691406 13.04357422 1.21382812 12.27464844 1.06640625 11.48242188 C0.36761285 7.60578227 -0.19039017 3.958529 0 0 Z " fill="#7F98F1" transform="translate(247,95)"/>
<path d="M0 0 C0.99 0.495 0.99 0.495 2 1 C2 3.31 2 5.62 2 8 C4.94091587 7.81584568 4.94091587 7.81584568 8 7 C9.43637698 5.04836882 9.43637698 5.04836882 10 3 C10.21917317 5.70313576 10.32851983 7.43958382 8.9375 9.8125 C6.00731249 11.60842137 3.3527047 11.18977574 0 11 C0 7.37 0 3.74 0 0 Z " fill="#FCFDFB" transform="translate(89,165)"/>
<path d="M0 0 C0.66 0 1.32 0 2 0 C2 3.3 2 6.6 2 10 C5.3 10 8.6 10 12 10 C12 10.66 12 11.32 12 12 C8.04 12 4.08 12 0 12 C0 8.04 0 4.08 0 0 Z " fill="#E6E9F4" transform="translate(63,182)"/>
<path d="M0 0 C0.66 0 1.32 0 2 0 C2 3.96 2 7.92 2 12 C-1.96 12 -5.92 12 -10 12 C-10 11.34 -10 10.68 -10 10 C-6.7 10 -3.4 10 0 10 C0 6.7 0 3.4 0 0 Z " fill="#EAECF5" transform="translate(191,182)"/>
<path d="M0 0 C-0.33 1.65 -0.66 3.3 -1 5 C-7.75 6.125 -7.75 6.125 -10 5 C-10 4.01 -10 3.02 -10 2 C-8.71211992 1.46987262 -7.41953322 0.9511671 -6.125 0.4375 C-5.40570313 0.14746094 -4.68640625 -0.14257812 -3.9453125 -0.44140625 C-2 -1 -2 -1 0 0 Z " fill="#E6E9F4" transform="translate(144,112)"/>
<path d="M0 0 C3.96 0 7.92 0 12 0 C12 3.96 12 7.92 12 12 C11.34 12 10.68 12 10 12 C10 8.7 10 5.4 10 2 C6.7 2 3.4 2 0 2 C0 1.34 0 0.68 0 0 Z " fill="#E4E7F4" transform="translate(181,64)"/>
<path d="M0 0 C3.96 0 7.92 0 12 0 C12 0.66 12 1.32 12 2 C8.7 2 5.4 2 2 2 C2 5.3 2 8.6 2 12 C1.34 12 0.68 12 0 12 C0 8.04 0 4.08 0 0 Z " fill="#E5E9F5" transform="translate(63,64)"/>
<path d="M0 0 C0.66 0 1.32 0 2 0 C2 3.63 2 7.26 2 11 C1.34 11 0.68 11 0 11 C0 10.01 0 9.02 0 8 C-1.98 8 -3.96 8 -6 8 C-6 7.67 -6 7.34 -6 7 C-4.35 7 -2.7 7 -1 7 C-1 6.01 -1 5.02 -1 4 C-2.65 4 -4.3 4 -6 4 C-6 3.34 -6 2.68 -6 2 C-4.02 2 -2.04 2 0 2 C0 1.34 0 0.68 0 0 Z " fill="#597AF0" transform="translate(146,165)"/>
<path d="M0 0 C0.99 0 1.98 0 3 0 C3 2.97 3 5.94 3 9 C4.65 9 6.3 9 8 9 C8 9.66 8 10.32 8 11 C5.36 11 2.72 11 0 11 C0 7.37 0 3.74 0 0 Z " fill="#ECF0F9" transform="translate(111,165)"/>
<path d="M0 0 C4.44926052 0.41314562 6.84100104 3.50461527 9.75 6.5625 C10.25660156 7.08263672 10.76320312 7.60277344 11.28515625 8.13867188 C12.53034405 9.41910084 13.76611502 10.70867554 15 12 C14.67 12.99 14.34 13.98 14 15 C11.66265901 12.69152056 9.33081534 10.37756659 7 8.0625 C6.33226562 7.40314453 5.66453125 6.74378906 4.9765625 6.06445312 C4.34492188 5.43603516 3.71328125 4.80761719 3.0625 4.16015625 C2.47597656 3.57886963 1.88945312 2.99758301 1.28515625 2.39868164 C0 1 0 1 0 0 Z " fill="#4066F0" transform="translate(209,34)"/>
<path d="M0 0 C0.33 0.66 0.66 1.32 1 2 C1.66 2 2.32 2 3 2 C1.60846256 6.42761914 -0.52071486 8.9556255 -4 12 C-4.66 12 -5.32 12 -6 12 C-5.67 10.35 -5.34 8.7 -5 7 C-4.34 7 -3.68 7 -3 7 C-2.690625 6.21625 -2.38125 5.4325 -2.0625 4.625 C-1 2 -1 2 0 0 Z " fill="#D5DCF5" transform="translate(123,142)"/>
<path d="M0 0 C1.57159226 3.14318453 0.04018399 5.92933389 -0.9375 9.125 C-1.13279297 9.78371094 -1.32808594 10.44242188 -1.52929688 11.12109375 C-2.01304986 12.74933552 -2.50569075 14.37493182 -3 16 C-3.33 16 -3.66 16 -4 16 C-4.1080023 13.89695523 -4.18558987 11.79233091 -4.25 9.6875 C-4.31960937 7.92986328 -4.31960937 7.92986328 -4.390625 6.13671875 C-4 3 -4 3 -1.984375 1.08203125 C-1.32953125 0.72496094 -0.6746875 0.36789063 0 0 Z " fill="#5C7CF1" transform="translate(250,159)"/>
<path d="M0 0 C2.97 0 5.94 0 9 0 C9 2.64 9 5.28 9 8 C8.67 8 8.34 8 8 8 C7.67 6.02 7.34 4.04 7 2 C5.35 2 3.7 2 2 2 C2 3.98 2 5.96 2 8 C1.34 8 0.68 8 0 8 C0 5.36 0 2.72 0 0 Z " fill="#6886F1" transform="translate(146,138)"/>
<path d="M0 0 C2.55664559 2.22317008 3.3936615 3.68845894 4 7 C4.06624507 8.74886981 4.08552595 10.50002748 4.0625 12.25 C4.05347656 13.14203125 4.04445312 14.0340625 4.03515625 14.953125 C4.02355469 15.62859375 4.01195312 16.3040625 4 17 C0.68341387 12.0251208 -0.38479461 5.96431647 0 0 Z " fill="#4C70F0" transform="translate(248,93)"/>
<path d="M0 0 C0.99 0 1.98 0 3 0 C3 3.63 3 7.26 3 11 C2.01 11 1.02 11 0 11 C0 7.37 0 3.74 0 0 Z " fill="#E6ECF9" transform="translate(120,165)"/>
<path d="M0 0 C0.33 0 0.66 0 1 0 C0.91308261 2.77236494 0.80622639 5.54147078 0.6875 8.3125 C0.66494141 9.09818359 0.64238281 9.88386719 0.61914062 10.69335938 C0.58369141 11.45068359 0.54824219 12.20800781 0.51171875 12.98828125 C0.48553467 13.68477783 0.45935059 14.38127441 0.43237305 15.09887695 C-0.11223768 17.49350359 -1.15829162 18.43272547 -3 20 C-2.69140975 17.22867983 -2.3782967 14.45800014 -2.0625 11.6875 C-1.97548828 10.90181641 -1.88847656 10.11613281 -1.79882812 9.30664062 C-1.71181641 8.54931641 -1.62480469 7.79199219 -1.53515625 7.01171875 C-1.41732788 5.96697388 -1.41732788 5.96697388 -1.29711914 4.90112305 C-1 3 -1 3 0 0 Z " fill="#4167F0" transform="translate(252,140)"/>
<path d="M0 0 C1.32 0 2.64 0 4 0 C3.67 1.65 3.34 3.3 3 5 C2.34 5 1.68 5 1 5 C1 6.32 1 7.64 1 9 C0.01 9 -0.98 9 -2 9 C-2.20140476 5.37471432 -1.85776765 3.13498292 0 0 Z " fill="#C1CEF7" transform="translate(150,167)"/>
<path d="M0 0 C8.57142857 -0.28571429 8.57142857 -0.28571429 12 2 C3.57142857 4.42857143 3.57142857 4.42857143 -1 3 C-0.67 2.01 -0.34 1.02 0 0 Z " fill="#5F7FF1" transform="translate(152,6)"/>
<path d="M0 0 C0.66 1.32 1.32 2.64 2 4 C3.98 4 5.96 4 8 4 C8 4.99 8 5.98 8 7 C5.36 7 2.72 7 0 7 C0 4.69 0 2.38 0 0 Z " fill="#F2F5FA" transform="translate(138,169)"/>
<path d="M0 0 C0.33 0 0.66 0 1 0 C1.33 2.31 1.66 4.62 2 7 C2.33 5.02 2.66 3.04 3 1 C3.33 1 3.66 1 4 1 C4.33 4.63 4.66 8.26 5 12 C4.01 12.33 3.02 12.66 2 13 C-0.24828052 8.50343896 -0.16682272 4.92127034 0 0 Z " fill="#B3C2F3" transform="translate(105,92)"/>
<path d="M0 0 C0.99 0.33 1.98 0.66 3 1 C-0.25403812 4.62592819 -2.15754571 6.37917253 -7 7 C-9.23408113 7.99083967 -9.23408113 7.99083967 -11 9 C-8.30152216 5.20214229 -6.39131539 3.50229211 -2 2 C-1.34 1.34 -0.68 0.68 0 0 Z " fill="#6C8AF1" transform="translate(216,217)"/>
<path d="M0 0 C0.66 0 1.32 0 2 0 C1.67 3.63 1.34 7.26 1 11 C0.01 11.33 -0.98 11.66 -2 12 C-1.44687265 7.97007218 -0.8441938 3.97977076 0 0 Z " fill="#E8EBF5" transform="translate(126,132)"/>
<path d="M0 0 C3.39192363 0.59283621 5.2107757 1.76743189 7.75 4.0625 C8.67039062 4.88427734 8.67039062 4.88427734 9.609375 5.72265625 C10.29773438 6.35494141 10.29773438 6.35494141 11 7 C10.01 7.33 9.02 7.66 8 8 C5.95703125 6.6015625 5.95703125 6.6015625 3.8125 4.625 C3.09707031 3.97789062 2.38164063 3.33078125 1.64453125 2.6640625 C0 1 0 1 0 0 Z " fill="#476CF0" transform="translate(43,222)"/>
<path d="M0 0 C0.99 0 1.98 0 3 0 C4.32 2.31 5.64 4.62 7 7 C5.68 7.33 4.36 7.66 3 8 C0 3.375 0 3.375 0 0 Z " fill="#D5DCF4" transform="translate(108,104)"/>
<path d="M0 0 C2.31 0 4.62 0 7 0 C7.33 1.32 7.66 2.64 8 4 C6.02 3.34 4.04 2.68 2 2 C1.67 3.32 1.34 4.64 1 6 C0.67 6 0.34 6 0 6 C0 4.02 0 2.04 0 0 Z " fill="#FDFEFC" transform="translate(148,165)"/>
<path d="M0 0 C3.36720387 1.39332574 4.9859524 2.9789286 7 6 C6.01 6.66 5.02 7.32 4 8 C2.35 5.69 0.7 3.38 -1 1 C-0.67 0.67 -0.34 0.34 0 0 Z " fill="#E4E7F4" transform="translate(140,78)"/>
<path d="M0 0 C0.91007812 0.00902344 1.82015625 0.01804687 2.7578125 0.02734375 C3.45648438 0.03894531 4.15515625 0.05054687 4.875 0.0625 C4.875 0.3925 4.875 0.7225 4.875 1.0625 C2.235 1.0625 -0.405 1.0625 -3.125 1.0625 C-3.125 1.7225 -3.125 2.3825 -3.125 3.0625 C-1.145 3.0625 0.835 3.0625 2.875 3.0625 C2.875 3.3925 2.875 3.7225 2.875 4.0625 C0.235 4.0625 -2.405 4.0625 -5.125 4.0625 C-5.125 3.4025 -5.125 2.7425 -5.125 2.0625 C-5.785 1.7325 -6.445 1.4025 -7.125 1.0625 C-4.60024538 -0.19987731 -2.81299534 -0.03606404 0 0 Z " fill="#AABBF3" transform="translate(105.125,111.9375)"/>
<path d="M0 0 C3.36591866 1.44253657 5.51047079 3.33264727 8 6 C7.67 6.99 7.34 7.98 7 9 C5.82737096 7.88121617 4.66204862 6.75476949 3.5 5.625 C2.8503125 4.99851563 2.200625 4.37203125 1.53125 3.7265625 C0 2 0 2 0 0 Z " fill="#456BF0" transform="translate(29,207)"/>
<path d="M0 0 C0.99 0.33 1.98 0.66 3 1 C3.66 4.3 4.32 7.6 5 11 C0 4.33333333 0 4.33333333 0 0 Z " fill="#F3F5F9" transform="translate(125,165)"/>
<path d="M0 0 C0.66 0 1.32 0 2 0 C2.66 2.31 3.32 4.62 4 7 C3.34 7 2.68 7 2 7 C1.34 7.99 0.68 8.98 0 10 C0 6.7 0 3.4 0 0 Z " fill="#5C7CF0" transform="translate(123,165)"/>
<path d="M0 0 C3.3 0 6.6 0 10 0 C10 0.66 10 1.32 10 2 C11.65 2 13.3 2 15 2 C15 2.99 15 3.98 15 5 C13.02 4.34 11.04 3.68 9 3 C9 2.34 9 1.68 9 1 C6.03 1 3.06 1 0 1 C0 0.67 0 0.34 0 0 Z " fill="#BAC7F4" transform="translate(124,115)"/>
<path d="M0 0 C1.65 0 3.3 0 5 0 C4.67 0.99 4.34 1.98 4 3 C0.9375 4.1875 0.9375 4.1875 -2 5 C-1.34 3.35 -0.68 1.7 0 0 Z " fill="#D9DFF4" transform="translate(95,114)"/>
<path d="M0 0 C0 0.99 0 1.98 0 3 C-2.8125 5.75 -2.8125 5.75 -6 8 C-6.99 7.67 -7.98 7.34 -9 7 C-7.71034824 5.62437146 -6.37310707 4.29233607 -5 3 C-4.34 3 -3.68 3 -3 3 C-1.37485532 1.54166642 -1.37485532 1.54166642 0 0 Z " fill="#708CF1" transform="translate(33,49)"/>
<path d="M0 0 C0.33 0 0.66 0 1 0 C1.36625971 4.51720311 1.36625971 4.51720311 -0.375 6.8125 C-2 8 -2 8 -4 8 C-4 7.34 -4 6.68 -4 6 C-4.66 5.67 -5.32 5.34 -6 5 C-4.35 4.67 -2.7 4.34 -1 4 C-0.67 2.68 -0.34 1.36 0 0 Z " fill="#E5EAF8" transform="translate(98,168)"/>
<path d="M0 0 C0.495 0.309375 0.99 0.61875 1.5 0.9375 C4.97986781 2.41644382 8.24028509 2.62402851 12 3 C12 3.33 12 3.66 12 4 C6.06 4.495 6.06 4.495 0 5 C0 3.35 0 1.7 0 0 Z " fill="#BAC7F4" transform="translate(143,112)"/>
<path d="M0 0 C3 2 3 2 3.6875 4.625 C3.8421875 5.800625 3.8421875 5.800625 4 7 C2.68 7.33 1.36 7.66 0 8 C0 5.36 0 2.72 0 0 Z " fill="#6584F1" transform="translate(246,87)"/>
<path d="M0 0 C2.50298434 2.93828597 3.46930939 5.17902761 4 9 C3.01 9.495 3.01 9.495 2 10 C-0.09350689 6.5980513 -0.17942163 3.94727588 0 0 Z " fill="#5275F1" transform="translate(242,75)"/>
<path d="M0 0 C0.66 0.66 1.32 1.32 2 2 C-0.97 4.475 -0.97 4.475 -4 7 C-4.66 6.34 -5.32 5.68 -6 5 C-4.02 3.35 -2.04 1.7 0 0 Z " fill="#456AF0" transform="translate(210,222)"/>
<path d="M0 0 C1.32 0 2.64 0 4 0 C3.67 1.65 3.34 3.3 3 5 C2.01 5 1.02 5 0 5 C0 3.35 0 1.7 0 0 Z " fill="#4268F0" transform="translate(92,168)"/>
<path d="M0 0 C-1.75 4.875 -1.75 4.875 -4 6 C-4.66 5.67 -5.32 5.34 -6 5 C-6 4.01 -6 3.02 -6 2 C-2.25 0 -2.25 0 0 0 Z " fill="#DBE1F4" transform="translate(140,112)"/>
<path d="M0 0 C1.45606519 4.52092968 0.27032841 7.51648796 -1 12 C-1.33 12 -1.66 12 -2 12 C-2.05422947 10.5629191 -2.09289723 9.12524538 -2.125 7.6875 C-2.14820313 6.88699219 -2.17140625 6.08648437 -2.1953125 5.26171875 C-2 3 -2 3 0 0 Z " fill="#4268F0" transform="translate(6,98)"/>
<path d="M0 0 C1.61949011 2.57213134 2.04408751 3.67669159 1.625 6.75 C1.41875 7.4925 1.2125 8.235 1 9 C0.01 9.33 -0.98 9.66 -2 10 C-1.46274105 6.62294375 -0.88935377 3.303314 0 0 Z " fill="#587AF0" transform="translate(7,90)"/>
<path d="M0 0 C-1.17578125 1.51953125 -1.17578125 1.51953125 -3 3 C-5.48046875 3.07421875 -5.48046875 3.07421875 -8.1875 2.6875 C-9.53908203 2.50767578 -9.53908203 2.50767578 -10.91796875 2.32421875 C-11.94857422 2.16373047 -11.94857422 2.16373047 -13 2 C-13 1.67 -13 1.34 -13 1 C-8.60563789 0.14256349 -4.47427924 -0.08948558 0 0 Z " fill="#6886F1" transform="translate(118,3)"/>
<path d="M0 0 C0.66 0.33 1.32 0.66 2 1 C1.6875 2.9375 1.6875 2.9375 1 5 C0.01 5.33 -0.98 5.66 -2 6 C-2.33 5.34 -2.66 4.68 -3 4 C-2.01 2.68 -1.02 1.36 0 0 Z " fill="#6483F1" transform="translate(203,226)"/>
<path d="M0 0 C1.5 1.3125 1.5 1.3125 3 3 C3 6 3 6 2 8 C0.4375 6.8125 0.4375 6.8125 -1 5 C-0.6875 2.3125 -0.6875 2.3125 0 0 Z " fill="#7793F1" transform="translate(224,47)"/>
</svg>
